<svg width="337" height="67" viewBox="0 0 337 67" fill="none" xmlns="http://www.w3.org/2000/svg">
<path d="M49.4231 15.9181C49.1096 15.2331 48.7696 14.5618 48.4038 13.9059C31.515 17.5548 11.0536 27.1534 2.0389 41.3747C4.25733 45.5791 7.46967 49.1159 11.3678 51.6456C19.2085 35.7425 39.4901 19.7163 49.4231 15.9181ZM46.8772 11.4559C42.0323 4.51294 34.2038 0 25.3662 0C13.9445 0 4.20564 7.53457 0.420898 18.1175C14.0647 11.0158 35.3688 9.62363 46.8772 11.4559ZM27.5718 55.7084C41.2491 54.5324 52.0008 42.5384 52.0008 27.9055C52.0046 24.2121 51.3067 20.555 49.9479 17.1471C40.6668 27.086 31.339 41.5747 27.5718 55.7084ZM5.73484 26.2292H6.57229V34.2328H5.73484V26.2292Z" fill="#4E9525"/>
<path d="M4.66323 20.0276C6.15362 21.4927 6.63907 24.6347 6.55187 26.2173C9.51404 23.6965 6.25145 18.8594 3.66414 18.2427C3.8396 19.4727 3.72103 20.6108 3.54557 21.6275C3.16273 23.8698 4.16182 26.0558 5.77876 26.2346C5.8213 25.0993 6.15362 23.4938 4.66323 20.0276Z" fill="#4E9525"/>
<path d="M1.33398 26.9743C2.21982 26.5503 4.46046 26.7509 5.42765 27.0188C3.73414 24.3348 0.681038 25.9966 0.000976562 27.2963C0.814498 27.4289 1.50785 27.7486 2.11347 28.0795C3.44861 28.811 5.03577 28.5725 5.4856 27.4879C4.77736 27.2255 2.3554 26.9548 1.33398 26.9743ZM9.84034 25.7559C9.62978 26.7487 8.1245 28.5035 7.34022 29.148C10.4034 29.353 10.9798 25.7983 10.3997 24.4468C9.80737 25.0468 9.14539 25.4334 8.5286 25.7392C7.16475 26.4138 6.39058 27.8862 6.94409 28.914C7.57471 28.4817 9.24163 26.6194 9.84034 25.7559ZM23.9568 46.6093H24.7943V54.6129H23.9568V46.6093Z" fill="#4E9525"/>
<path d="M22.8859 40.4075C24.3763 41.8726 24.8617 45.0146 24.7745 46.5961C27.7372 44.0764 24.4741 39.2381 21.8868 38.6226C22.0623 39.8526 21.9432 40.9918 21.7682 42.0069C21.3854 44.2486 22.3845 46.4362 24.0014 46.6145C24.0434 45.4792 24.3757 43.8731 22.8859 40.4075Z" fill="#4E9525"/>
<path d="M19.5561 47.354C20.4419 46.9289 22.6826 47.1306 23.6492 47.398C21.9552 44.714 18.9026 46.3752 18.222 47.6749C19.0356 47.8075 19.7295 48.1272 20.3345 48.4581C21.6697 49.1896 23.2568 48.9512 23.7067 47.8682C23 47.6041 20.5781 47.3345 19.5561 47.354ZM28.0641 46.1351C27.8535 47.1284 26.3488 48.8832 25.5645 49.5277C28.6277 49.7316 29.2046 46.1769 28.624 44.8265C28.0316 45.4254 27.3696 45.8126 26.7529 46.1184C25.3906 46.7925 24.6148 48.2654 25.1694 49.2927C25.7974 48.8604 27.4643 46.9975 28.0641 46.1351ZM16.5498 20.0195H17.1586V25.8327H16.5498V20.0195Z" fill="#4E9525"/>
<path d="M15.7709 15.5165C16.8529 16.58 17.2054 18.8618 17.1416 20.0105C19.294 18.1805 16.9231 14.6669 15.0456 14.2207C15.1732 15.1137 15.0866 15.941 14.9584 16.6786C14.6814 18.3058 15.4061 19.8946 16.5801 20.025C16.6115 19.1994 16.8529 18.0328 15.7709 15.5165Z" fill="#4E9525"/>
<path d="M13.3544 20.5603C13.9967 20.2528 15.6249 20.3982 16.3278 20.5926C15.0963 18.6433 12.8807 19.85 12.3867 20.7937C12.9775 20.8901 13.4815 21.1218 13.9207 21.3625C14.8911 21.8945 16.0428 21.7207 16.3693 20.9341C15.8551 20.7413 14.0967 20.5463 13.3544 20.5603ZM19.5329 19.6762C19.3793 20.3965 18.2871 21.6711 17.7177 22.1391C19.9418 22.2872 20.3608 19.7057 19.9402 18.7241C19.509 19.1586 19.0294 19.4405 18.5812 19.6628C17.5906 20.1519 17.0286 21.2226 17.4306 21.968C17.8873 21.6555 19.0985 20.3023 19.5329 19.6762ZM31.0876 36.5369H31.697V42.3518H31.0876V36.5369Z" fill="#4E9525"/>
<path d="M30.3088 32.0347C31.3908 33.0982 31.7428 35.3805 31.6806 36.5287C33.8324 34.6987 31.4621 31.1846 29.584 30.7378C29.7122 31.6314 29.6255 32.4592 29.4963 33.1968C29.2198 34.8246 29.9445 36.4128 31.1186 36.5437C31.1499 35.717 31.3913 34.551 30.3088 32.0347Z" fill="#4E9525"/>
<path d="M27.8905 37.0803C28.5333 36.7711 30.1609 36.9165 30.8643 37.1121C29.6334 35.1623 27.4178 36.3695 26.9238 37.3126C27.5129 37.4096 28.0186 37.6419 28.4583 37.8814C29.4298 38.4123 30.5804 38.2402 30.9074 37.4519C30.3927 37.2608 28.6327 37.0653 27.8905 37.0803ZM34.069 36.194C33.9158 36.9138 32.8237 38.1895 32.2537 38.658C34.4779 38.8051 34.8963 36.2252 34.4763 35.2425C34.0456 35.6776 33.5654 35.96 33.1177 36.1817C32.1277 36.6709 31.5641 37.741 31.9671 38.4858C32.4233 38.1728 33.6335 36.8202 34.069 36.194ZM26.667 16.0576H27.1019V19.9583H26.667V16.0576Z" fill="#4E9525"/>
<path d="M26.062 13.0362C26.8851 13.7504 27.152 15.2801 27.1052 16.0517C28.7418 14.8239 26.9382 12.4663 25.509 12.166C25.6068 12.7666 25.5404 13.3203 25.4431 13.815C25.233 14.9074 25.7844 15.9726 26.6777 16.0595C26.6995 15.508 26.8829 14.7247 26.062 13.0362Z" fill="#4E9525"/>
<path d="M24.2236 16.4212C24.7128 16.2146 25.949 16.312 26.4845 16.4424C25.5487 15.1349 23.8637 15.9438 23.4883 16.5772C23.9376 16.6418 24.3204 16.7978 24.6549 16.9594C25.3929 17.3159 26.2681 17.1989 26.5159 16.6708C26.1256 16.5427 24.7889 16.4129 24.2236 16.4212ZM28.9224 15.8279C28.8059 16.312 27.9765 17.1666 27.541 17.4808C29.2318 17.5794 29.5509 15.8474 29.2308 15.189C28.9027 15.4809 28.5374 15.6708 28.1971 15.8185C27.4442 16.1472 27.0173 16.8647 27.323 17.3661C27.6697 17.1566 28.5917 16.2485 28.9224 15.8279ZM37.7244 27.6415H38.1582V31.5422H37.7244V27.6415Z" fill="#4E9525"/>
<path d="M37.1187 24.6213C37.9417 25.3349 38.2103 26.8652 38.1619 27.6357C39.799 26.409 37.9954 24.0503 36.5673 23.75C36.6646 24.3505 36.5986 24.9048 36.5019 25.4001C36.2913 26.492 36.8422 27.5571 37.7354 27.6446C37.7578 27.092 37.9417 26.3098 37.1187 24.6213Z" fill="#4E9525"/>
<path d="M35.2798 28.005C35.7685 27.7989 37.0058 27.8963 37.5412 28.0261C36.6054 26.7187 34.9199 27.5281 34.5439 28.161C34.9932 28.2256 35.3766 28.3816 35.7111 28.5431C36.4475 28.9002 37.3232 28.7832 37.5721 28.2551C37.1812 28.1264 35.845 27.9966 35.2798 28.005ZM39.9791 27.4122C39.8611 27.8963 39.0321 28.7504 38.5961 29.064C40.2886 29.1632 40.6071 27.4312 40.287 26.7733C39.9584 27.0652 39.5942 27.2535 39.2533 27.4022C38.5015 27.7309 38.0729 28.4484 38.3781 28.9492C38.7264 28.7392 39.6473 27.8317 39.9791 27.4122ZM34.9369 14.0801H35.2299V16.7134H34.9369V14.0801Z" fill="#4E9525"/>
<path d="M34.5275 12.0418C35.0816 12.5236 35.2629 13.5559 35.2305 14.0768C36.3354 13.2473 35.1199 11.6563 34.1537 11.4546C34.2197 11.8596 34.1745 12.2334 34.1096 12.5682C33.9666 13.3052 34.3404 14.025 34.9428 14.0835C34.9582 13.7097 35.0816 13.181 34.5275 12.0418Z" fill="#4E9525"/>
<path d="M33.2852 14.3259C33.6143 14.1866 34.4491 14.2523 34.8117 14.3409C34.18 13.4579 33.0427 14.005 32.7891 14.4317C33.0921 14.4757 33.3527 14.581 33.5776 14.6896C34.0753 14.9303 34.666 14.8512 34.8319 14.4947C34.5692 14.4078 33.6664 14.3209 33.2852 14.3259ZM36.4579 13.9253C36.3787 14.2523 35.8166 14.8289 35.5258 15.0412C36.6669 15.108 36.8806 13.9393 36.6653 13.4941C36.4441 13.6913 36.1984 13.8189 35.9677 13.9198C35.4599 14.1409 35.1722 14.625 35.3785 14.9637C35.6103 14.8217 36.2346 14.21 36.4579 13.9253Z" fill="#4E9525"/>
<path d="M93.668 23.5457C94.2977 23.5457 94.8157 23.7372 95.222 24.1203C95.6486 24.5247 95.8619 25.0461 95.8619 25.6846C95.8619 26.3018 95.6486 26.8125 95.222 27.2169C94.8157 27.6213 94.2977 27.8235 93.668 27.8235H81.4191V40.9761C81.4191 41.6146 81.2058 42.1573 80.7792 42.6042C80.3527 43.0511 79.8347 43.2746 79.2253 43.2746C78.5956 43.2746 78.0674 43.0511 77.6408 42.6042C77.2143 42.1573 77.001 41.6146 77.001 40.9761V10.7123C77.001 10.0312 77.2143 9.46725 77.6408 9.02031C78.0674 8.59466 78.5956 8.38184 79.2253 8.38184H98.4823C99.1526 8.38184 99.6808 8.58402 100.067 8.98839C100.473 9.39276 100.676 9.92482 100.676 10.5846C100.676 11.2018 100.473 11.7019 100.067 12.085C99.6808 12.4681 99.1526 12.6596 98.4823 12.6596H81.4191V23.5457H93.668ZM116.49 18.6613C118.684 18.6613 120.675 19.204 122.462 20.2894C124.229 21.3748 125.631 22.8646 126.667 24.7588C127.703 26.6529 128.221 28.7599 128.221 31.0797V41.0399C128.221 41.6997 128.018 42.2424 127.612 42.668C127.205 43.115 126.687 43.3384 126.058 43.3384C125.428 43.3384 124.91 43.115 124.504 42.668C124.077 42.2424 123.864 41.6997 123.864 41.0399V39.4118C122.868 40.6888 121.66 41.6784 120.238 42.3807C118.816 43.1043 117.282 43.4661 115.637 43.4661C113.585 43.4661 111.737 42.9341 110.091 41.8699C108.426 40.7845 107.115 39.2948 106.161 37.4006C105.206 35.5065 104.729 33.3995 104.729 31.0797C104.729 28.7599 105.236 26.6529 106.252 24.7588C107.288 22.8646 108.71 21.3748 110.518 20.2894C112.305 19.204 114.296 18.6613 116.49 18.6613ZM116.49 39.4437C117.912 39.4437 119.202 39.0819 120.36 38.3583C121.518 37.6134 122.422 36.6132 123.072 35.3575C123.722 34.0805 124.047 32.6546 124.047 31.0797C124.047 29.5048 123.722 28.0788 123.072 26.8019C122.422 25.5249 121.518 24.514 120.36 23.7691C119.202 23.0455 117.912 22.6837 116.49 22.6837C115.068 22.6837 113.778 23.0455 112.62 23.7691C111.483 24.514 110.579 25.5249 109.909 26.8019C109.238 28.0788 108.903 29.5048 108.903 31.0797C108.903 32.6546 109.238 34.0805 109.909 35.3575C110.579 36.6132 111.483 37.6134 112.62 38.3583C113.778 39.0819 115.068 39.4437 116.49 39.4437ZM146.137 18.5655C147.64 18.5655 148.819 18.8103 149.672 19.2998C150.525 19.768 150.952 20.3639 150.952 21.0875C150.952 21.2791 150.941 21.428 150.921 21.5345C150.657 22.4709 150.088 22.9391 149.215 22.9391C149.073 22.9391 148.859 22.9178 148.575 22.8753C147.437 22.6624 146.513 22.556 145.802 22.556C143.75 22.556 142.105 23.0455 140.866 24.0245C139.607 25.0035 138.977 26.3337 138.977 28.015V41.0399C138.977 41.7635 138.804 42.3169 138.459 42.7C138.093 43.0831 137.555 43.2746 136.844 43.2746C136.153 43.2746 135.625 43.0937 135.259 42.7319C134.894 42.3488 134.711 41.7848 134.711 41.0399V21.0875C134.711 20.3639 134.894 19.8106 135.259 19.4275C135.625 19.0444 136.153 18.8529 136.844 18.8529C138.266 18.8529 138.977 19.5977 138.977 21.0875V21.9175C139.83 20.8747 140.886 20.0553 142.146 19.4594C143.385 18.8635 144.715 18.5655 146.137 18.5655ZM179.959 18.6294C182.437 18.6294 184.438 19.4701 185.961 21.1514C187.485 22.854 188.247 25.227 188.247 28.2704V41.0399C188.247 41.6997 188.044 42.2424 187.637 42.668C187.251 43.115 186.733 43.3384 186.083 43.3384C185.454 43.3384 184.936 43.115 184.529 42.668C184.103 42.2424 183.89 41.6997 183.89 41.0399V28.2704C183.89 26.4614 183.463 25.078 182.61 24.1203C181.736 23.1839 180.568 22.7156 179.106 22.7156C177.643 22.7156 176.435 23.2583 175.48 24.3438C174.525 25.4079 174.048 26.7806 174.048 28.4619V41.0399C174.048 41.6997 173.845 42.2424 173.438 42.668C173.052 43.115 172.524 43.3384 171.854 43.3384C171.244 43.3384 170.727 43.115 170.3 42.668C169.894 42.2424 169.691 41.6997 169.691 41.0399V28.2704C169.691 26.4614 169.254 25.078 168.38 24.1203C167.527 23.1839 166.369 22.7156 164.907 22.7156C163.404 22.7156 162.175 23.2583 161.22 24.3438C160.265 25.4079 159.788 26.7806 159.788 28.4619V41.0399C159.788 41.6997 159.595 42.2424 159.209 42.668C158.803 43.115 158.274 43.3384 157.624 43.3384C156.995 43.3384 156.477 43.115 156.07 42.668C155.644 42.2424 155.431 41.6997 155.431 41.0399V21.1514C155.431 20.4703 155.644 19.9276 156.07 19.5233C156.477 19.0976 156.995 18.8848 157.624 18.8848C158.254 18.8848 158.762 19.087 159.148 19.4913C159.554 19.8957 159.767 20.4278 159.788 21.0875C160.539 20.3001 161.423 19.6935 162.439 19.2679C163.454 18.8422 164.561 18.6294 165.76 18.6294C167.222 18.6294 168.523 18.9273 169.66 19.5233C170.818 20.1405 171.762 21.013 172.494 22.141C173.347 21.0343 174.413 20.1724 175.693 19.5552C176.973 18.938 178.395 18.6294 179.959 18.6294ZM213.415 19.1402C213.781 19.3317 214.065 19.5765 214.268 19.8744C214.471 20.1937 214.573 20.5448 214.573 20.9279C214.573 21.2046 214.502 21.4919 214.359 21.7898L205.31 41.7742C204.883 42.7532 204.233 43.2427 203.36 43.2427C202.872 43.2427 202.466 43.1256 202.141 42.8915C201.836 42.6787 201.552 42.3062 201.288 41.7742L192.269 21.7898C192.147 21.5557 192.086 21.2897 192.086 20.9918C192.086 20.183 192.482 19.5658 193.274 19.1402C193.538 18.9912 193.843 18.9167 194.188 18.9167C194.513 18.9167 194.838 19.0125 195.163 19.204C195.468 19.4168 195.712 19.6935 195.895 20.034L203.299 36.7941L210.642 20.034C210.805 19.6935 211.059 19.4168 211.404 19.204C211.729 19.0125 212.074 18.9167 212.44 18.9167C212.806 18.9167 213.131 18.9912 213.415 19.1402ZM239.771 30.6966C239.771 31.25 239.589 31.7182 239.223 32.1013C238.857 32.4631 238.39 32.644 237.821 32.644H221.611C221.916 34.7296 222.82 36.411 224.323 37.6879C225.806 38.9862 227.634 39.6353 229.808 39.6353C230.661 39.6353 231.545 39.465 232.459 39.1245C233.393 38.8053 234.155 38.4009 234.744 37.9114C235.15 37.5922 235.617 37.4325 236.145 37.4325C236.694 37.4325 237.12 37.5815 237.425 37.8795C237.933 38.3264 238.187 38.8372 238.187 39.4118C238.187 39.9439 237.964 40.3908 237.517 40.7526C236.542 41.5401 235.343 42.1892 233.921 42.7C232.479 43.2108 231.108 43.4661 229.808 43.4661C227.472 43.4661 225.379 42.9341 223.531 41.8699C221.682 40.8271 220.24 39.3586 219.204 37.4645C218.168 35.5916 217.65 33.4633 217.65 31.0797C217.65 28.696 218.138 26.5571 219.113 24.663C220.088 22.7688 221.449 21.3004 223.196 20.2575C224.943 19.1934 226.933 18.6613 229.168 18.6613C231.341 18.6613 233.231 19.1721 234.835 20.1937C236.42 21.1939 237.638 22.6092 238.492 24.4395C239.345 26.2485 239.771 28.3342 239.771 30.6966ZM229.168 22.4922C227.076 22.4922 225.39 23.0881 224.11 24.2799C222.81 25.4717 221.987 27.0679 221.642 29.0685H235.841C235.597 27.0679 234.886 25.4717 233.708 24.2799C232.55 23.0881 231.037 22.4922 229.168 22.4922ZM253.513 18.6613C255.362 18.6613 257.017 18.9699 258.48 19.5871C259.942 20.2256 261.1 21.0982 261.954 22.2049C262.319 22.6731 262.502 23.1413 262.502 23.6095C262.502 24.1203 262.268 24.5885 261.801 25.0142C261.476 25.2483 261.07 25.3653 260.582 25.3653C259.851 25.3653 259.191 25.078 258.602 24.5034C257.891 23.8223 257.129 23.3435 256.317 23.0668C255.524 22.7901 254.559 22.6518 253.422 22.6518C252.122 22.6518 251.055 22.8753 250.223 23.3222C249.369 23.7904 248.943 24.4395 248.943 25.2696C248.943 25.8655 249.085 26.3656 249.369 26.77C249.654 27.1743 250.192 27.5468 250.984 27.8873C251.797 28.2278 252.955 28.5683 254.458 28.9089C257.546 29.5473 259.739 30.4519 261.039 31.6224C262.339 32.7929 262.989 34.2934 262.989 36.1237C262.989 37.507 262.634 38.7521 261.923 39.8587C261.212 40.9867 260.166 41.87 258.785 42.5084C257.403 43.1469 255.748 43.4661 253.818 43.4661C251.888 43.4661 250.07 43.1575 248.364 42.5404C246.658 41.9019 245.317 41.0825 244.342 40.0822C243.976 39.6778 243.793 39.2096 243.793 38.6776C243.793 37.9752 244.078 37.4006 244.647 36.9537C245.175 36.528 245.672 36.3152 246.14 36.3152C246.708 36.3152 247.247 36.5812 247.755 37.1133C248.303 37.7518 249.116 38.2945 250.192 38.7414C251.269 39.2096 252.416 39.4437 253.635 39.4437C255.26 39.4437 256.52 39.1564 257.413 38.5818C258.307 38.0284 258.754 37.2729 258.754 36.3152C258.754 35.4 258.317 34.6339 257.444 34.0167C256.55 33.3995 255.057 32.8887 252.965 32.4843C247.501 31.3776 244.768 29.0153 244.768 25.3972C244.768 23.95 245.185 22.7156 246.018 21.6941C246.83 20.6938 247.907 19.9383 249.248 19.4275C250.588 18.9167 252.01 18.6613 253.513 18.6613ZM278.438 38.8053C278.946 38.8053 279.372 39.0181 279.717 39.4437C280.083 39.8694 280.266 40.4015 280.266 41.0399C280.266 41.6997 280.032 42.2424 279.565 42.668C279.098 43.0724 278.489 43.2746 277.737 43.2746H276.975C275.574 43.2746 274.304 42.9022 273.166 42.1573C272.009 41.3911 271.105 40.3482 270.455 39.0287C269.805 37.7305 269.48 36.262 269.48 34.6232V23.5776H267.499C266.91 23.5776 266.433 23.3967 266.067 23.0349C265.681 22.6731 265.488 22.2261 265.488 21.6941C265.488 21.0982 265.681 20.6193 266.067 20.2575C266.433 19.917 266.91 19.7467 267.499 19.7467H269.48V13.2981C269.48 12.6383 269.673 12.1063 270.059 11.7019C270.465 11.2763 270.983 11.0634 271.612 11.0634C272.222 11.0634 272.73 11.2763 273.136 11.7019C273.542 12.1063 273.745 12.6383 273.745 13.2981V19.7467H277.371C277.96 19.7467 278.438 19.917 278.803 20.2575C279.169 20.6193 279.352 21.0982 279.352 21.6941C279.352 22.2261 279.169 22.6731 278.803 23.0349C278.438 23.3967 277.96 23.5776 277.371 23.5776H273.745V34.6232C273.745 35.8151 274.05 36.8153 274.659 37.6241C275.289 38.4115 276.061 38.8053 276.975 38.8053H278.438ZM297.207 18.6294C299.157 18.6294 300.914 19.0763 302.479 19.9702C304.043 20.8641 305.272 22.1623 306.165 23.8649C307.039 25.5888 307.476 27.6532 307.476 30.0581V41.0399C307.476 41.6997 307.272 42.2424 306.866 42.668C306.44 43.115 305.922 43.3384 305.312 43.3384C304.683 43.3384 304.165 43.115 303.758 42.668C303.332 42.2424 303.118 41.6997 303.118 41.0399V30.0581C303.118 27.6532 302.499 25.8229 301.26 24.5672C300.021 23.3328 298.385 22.7156 296.354 22.7156C295.156 22.7156 294.069 22.971 293.094 23.4818C292.098 23.9926 291.327 24.6843 290.778 25.5569C290.23 26.4082 289.955 27.3765 289.955 28.4619V41.0399C289.955 41.6997 289.752 42.2424 289.346 42.668C288.94 43.115 288.412 43.3384 287.762 43.3384C287.132 43.3384 286.614 43.115 286.208 42.668C285.801 42.2424 285.598 41.6997 285.598 41.0399V21.1194C285.598 20.4384 285.801 19.8851 286.208 19.4594C286.614 19.055 287.132 18.8529 287.762 18.8529C288.412 18.8529 288.94 19.055 289.346 19.4594C289.752 19.8851 289.955 20.4384 289.955 21.1194V21.5983C290.849 20.6619 291.926 19.9276 293.185 19.3956C294.445 18.8848 295.785 18.6294 297.207 18.6294ZM325.27 18.6613C327.505 18.6613 329.516 19.1934 331.303 20.2575C333.07 21.3004 334.462 22.7688 335.477 24.663C336.493 26.5359 337.001 28.6748 337.001 31.0797V40.7526C337.001 43.0937 336.503 45.2326 335.508 47.1693C334.513 49.106 333.111 50.6384 331.303 51.7663C329.495 52.873 327.454 53.4264 325.179 53.4264C323.127 53.4264 321.218 53.0007 319.45 52.1494C317.703 51.2981 316.231 50.085 315.032 48.5101C314.707 48.1057 314.545 47.6907 314.545 47.2651C314.545 46.6479 314.849 46.1158 315.459 45.6689C315.845 45.3922 316.241 45.2539 316.647 45.2539C317.358 45.2539 317.937 45.5625 318.384 46.1797C319.156 47.2225 320.131 48.0206 321.309 48.574C322.467 49.1273 323.787 49.404 325.27 49.404C326.651 49.404 327.911 49.0528 329.048 48.3505C330.186 47.6482 331.1 46.6266 331.791 45.2858C332.481 43.9237 332.827 42.3062 332.827 40.4334V38.2306C331.933 39.8694 330.765 41.157 329.323 42.0934C327.86 43.0086 326.225 43.4661 324.417 43.4661C322.304 43.4661 320.415 42.9341 318.749 41.8699C317.084 40.8271 315.794 39.3586 314.88 37.4645C313.945 35.5916 313.478 33.4633 313.478 31.0797C313.478 28.6748 313.976 26.5359 314.971 24.663C315.967 22.7688 317.368 21.3004 319.176 20.2575C320.964 19.1934 322.995 18.6613 325.27 18.6613ZM325.27 39.4437C326.712 39.4437 328.012 39.0819 329.17 38.3583C330.328 37.656 331.222 36.6664 331.852 35.3894C332.502 34.1337 332.827 32.6972 332.827 31.0797C332.827 29.4835 332.502 28.0363 331.852 26.738C331.222 25.4611 330.328 24.4715 329.17 23.7691C328.012 23.0455 326.712 22.6837 325.27 22.6837C323.807 22.6837 322.507 23.0455 321.37 23.7691C320.212 24.4715 319.308 25.4611 318.658 26.738C318.008 28.0363 317.683 29.4835 317.683 31.0797C317.683 32.6972 318.008 34.1337 318.658 35.3894C319.308 36.6664 320.212 37.656 321.37 38.3583C322.507 39.0819 323.807 39.4437 325.27 39.4437Z" fill="#4E9525"/>
<path d="M84.603 53.7621C84.603 54.5741 84.323 55.2507 83.763 55.7921C83.2123 56.3241 82.3676 56.5901 81.229 56.5901H79.353V60.6641H78.079V50.9061H81.229C82.3303 50.9061 83.1656 51.1721 83.735 51.7041C84.3136 52.2361 84.603 52.9221 84.603 53.7621ZM81.229 55.5401C81.9383 55.5401 82.461 55.3861 82.797 55.0781C83.133 54.7701 83.301 54.3314 83.301 53.7621C83.301 52.5581 82.6103 51.9561 81.229 51.9561H79.353V55.5401H81.229ZM89.5324 60.7901C88.8137 60.7901 88.1604 60.6267 87.5724 60.3001C86.9937 59.9734 86.5364 59.5114 86.2004 58.9141C85.8737 58.3074 85.7104 57.6074 85.7104 56.8141C85.7104 56.0301 85.8784 55.3394 86.2144 54.7421C86.5597 54.1354 87.0264 53.6734 87.6144 53.3561C88.2024 53.0294 88.8604 52.8661 89.5884 52.8661C90.3164 52.8661 90.9744 53.0294 91.5624 53.3561C92.1504 53.6734 92.6124 54.1307 92.9484 54.7281C93.2937 55.3254 93.4664 56.0207 93.4664 56.8141C93.4664 57.6074 93.2891 58.3074 92.9344 58.9141C92.5891 59.5114 92.1177 59.9734 91.5204 60.3001C90.9231 60.6267 90.2604 60.7901 89.5324 60.7901ZM89.5324 59.6701C89.9897 59.6701 90.4191 59.5627 90.8204 59.3481C91.2217 59.1334 91.5437 58.8114 91.7864 58.3821C92.0384 57.9527 92.1644 57.4301 92.1644 56.8141C92.1644 56.1981 92.0431 55.6754 91.8004 55.2461C91.5577 54.8167 91.2404 54.4994 90.8484 54.2941C90.4564 54.0794 90.0317 53.9721 89.5744 53.9721C89.1077 53.9721 88.6784 54.0794 88.2864 54.2941C87.9037 54.4994 87.5957 54.8167 87.3624 55.2461C87.1291 55.6754 87.0124 56.1981 87.0124 56.8141C87.0124 57.4394 87.1244 57.9667 87.3484 58.3961C87.5817 58.8254 87.8897 59.1474 88.2724 59.3621C88.6551 59.5674 89.0751 59.6701 89.5324 59.6701ZM105.361 52.9921L102.967 60.6641H101.651L99.8035 54.5741L97.9555 60.6641H96.6395L94.2315 52.9921H95.5335L97.2975 59.4321L99.2015 52.9921H100.503L102.365 59.4461L104.101 52.9921H105.361ZM113.626 56.5341C113.626 56.7767 113.612 57.0334 113.584 57.3041H107.452C107.499 58.0601 107.755 58.6527 108.222 59.0821C108.698 59.5021 109.272 59.7121 109.944 59.7121C110.495 59.7121 110.952 59.5861 111.316 59.3341C111.689 59.0727 111.951 58.7274 112.1 58.2981H113.472C113.267 59.0354 112.856 59.6374 112.24 60.1041C111.624 60.5614 110.859 60.7901 109.944 60.7901C109.216 60.7901 108.563 60.6267 107.984 60.3001C107.415 59.9734 106.967 59.5114 106.64 58.9141C106.313 58.3074 106.15 57.6074 106.15 56.8141C106.15 56.0207 106.309 55.3254 106.626 54.7281C106.943 54.1307 107.387 53.6734 107.956 53.3561C108.535 53.0294 109.197 52.8661 109.944 52.8661C110.672 52.8661 111.316 53.0247 111.876 53.3421C112.436 53.6594 112.865 54.0981 113.164 54.6581C113.472 55.2087 113.626 55.8341 113.626 56.5341ZM112.31 56.2681C112.31 55.7827 112.203 55.3674 111.988 55.0221C111.773 54.6674 111.479 54.4014 111.106 54.2241C110.742 54.0374 110.336 53.9441 109.888 53.9441C109.244 53.9441 108.693 54.1494 108.236 54.5601C107.788 54.9707 107.531 55.5401 107.466 56.2681H112.31ZM116.581 54.2381C116.805 53.7994 117.123 53.4587 117.533 53.2161C117.953 52.9734 118.462 52.8521 119.059 52.8521V54.1681H118.723C117.295 54.1681 116.581 54.9427 116.581 56.4921V60.6641H115.307V52.9921H116.581V54.2381ZM127.53 56.5341C127.53 56.7767 127.516 57.0334 127.488 57.3041H121.356C121.403 58.0601 121.659 58.6527 122.126 59.0821C122.602 59.5021 123.176 59.7121 123.848 59.7121C124.399 59.7121 124.856 59.5861 125.22 59.3341C125.593 59.0727 125.855 58.7274 126.004 58.2981H127.376C127.171 59.0354 126.76 59.6374 126.144 60.1041C125.528 60.5614 124.763 60.7901 123.848 60.7901C123.12 60.7901 122.467 60.6267 121.888 60.3001C121.319 59.9734 120.871 59.5114 120.544 58.9141C120.217 58.3074 120.054 57.6074 120.054 56.8141C120.054 56.0207 120.213 55.3254 120.53 54.7281C120.847 54.1307 121.291 53.6734 121.86 53.3561C122.439 53.0294 123.101 52.8661 123.848 52.8661C124.576 52.8661 125.22 53.0247 125.78 53.3421C126.34 53.6594 126.769 54.0981 127.068 54.6581C127.376 55.2087 127.53 55.8341 127.53 56.5341ZM126.214 56.2681C126.214 55.7827 126.107 55.3674 125.892 55.0221C125.677 54.6674 125.383 54.4014 125.01 54.2241C124.646 54.0374 124.24 53.9441 123.792 53.9441C123.148 53.9441 122.597 54.1494 122.14 54.5601C121.692 54.9707 121.435 55.5401 121.37 56.2681H126.214ZM128.736 56.8001C128.736 56.0161 128.894 55.3301 129.212 54.7421C129.529 54.1447 129.963 53.6827 130.514 53.3561C131.074 53.0294 131.699 52.8661 132.39 52.8661C132.987 52.8661 133.542 53.0061 134.056 53.2861C134.569 53.5567 134.961 53.9161 135.232 54.3641V50.3041H136.52V60.6641H135.232V59.2221C134.98 59.6794 134.606 60.0574 134.112 60.3561C133.617 60.6454 133.038 60.7901 132.376 60.7901C131.694 60.7901 131.074 60.6221 130.514 60.2861C129.963 59.9501 129.529 59.4787 129.212 58.8721C128.894 58.2654 128.736 57.5747 128.736 56.8001ZM135.232 56.8141C135.232 56.2354 135.115 55.7314 134.882 55.3021C134.648 54.8727 134.331 54.5461 133.93 54.3221C133.538 54.0887 133.104 53.9721 132.628 53.9721C132.152 53.9721 131.718 54.0841 131.326 54.3081C130.934 54.5321 130.621 54.8587 130.388 55.2881C130.154 55.7174 130.038 56.2214 130.038 56.8001C130.038 57.3881 130.154 57.9014 130.388 58.3401C130.621 58.7694 130.934 59.1007 131.326 59.3341C131.718 59.5581 132.152 59.6701 132.628 59.6701C133.104 59.6701 133.538 59.5581 133.93 59.3341C134.331 59.1007 134.648 58.7694 134.882 58.3401C135.115 57.9014 135.232 57.3927 135.232 56.8141ZM143.679 54.4201C143.94 53.9627 144.323 53.5894 144.827 53.3001C145.331 53.0107 145.905 52.8661 146.549 52.8661C147.24 52.8661 147.86 53.0294 148.411 53.3561C148.962 53.6827 149.396 54.1447 149.713 54.7421C150.03 55.3301 150.189 56.0161 150.189 56.8001C150.189 57.5747 150.03 58.2654 149.713 58.8721C149.396 59.4787 148.957 59.9501 148.397 60.2861C147.846 60.6221 147.23 60.7901 146.549 60.7901C145.886 60.7901 145.303 60.6454 144.799 60.3561C144.304 60.0667 143.931 59.6981 143.679 59.2501V60.6641H142.405V50.3041H143.679V54.4201ZM148.887 56.8001C148.887 56.2214 148.77 55.7174 148.537 55.2881C148.304 54.8587 147.986 54.5321 147.585 54.3081C147.193 54.0841 146.759 53.9721 146.283 53.9721C145.816 53.9721 145.382 54.0887 144.981 54.3221C144.589 54.5461 144.272 54.8774 144.029 55.3161C143.796 55.7454 143.679 56.2447 143.679 56.8141C143.679 57.3927 143.796 57.9014 144.029 58.3401C144.272 58.7694 144.589 59.1007 144.981 59.3341C145.382 59.5581 145.816 59.6701 146.283 59.6701C146.759 59.6701 147.193 59.5581 147.585 59.3341C147.986 59.1007 148.304 58.7694 148.537 58.3401C148.77 57.9014 148.887 57.3881 148.887 56.8001ZM158.474 52.9921L153.854 64.2761H152.538L154.05 60.5801L150.956 52.9921H152.37L154.778 59.2081L157.158 52.9921H158.474ZM164.565 59.5581H169.325V60.6641H163.053V59.6561L167.785 52.0121H163.109V50.9061H169.297V51.9141L164.565 59.5581ZM177.865 52.9921V60.6641H176.591V59.5301C176.349 59.9221 176.008 60.2301 175.569 60.4541C175.14 60.6687 174.664 60.7761 174.141 60.7761C173.544 60.7761 173.007 60.6547 172.531 60.4121C172.055 60.1601 171.677 59.7867 171.397 59.2921C171.127 58.7974 170.991 58.1954 170.991 57.4861V52.9921H172.251V57.3181C172.251 58.0741 172.443 58.6574 172.825 59.0681C173.208 59.4694 173.731 59.6701 174.393 59.6701C175.075 59.6701 175.611 59.4601 176.003 59.0401C176.395 58.6201 176.591 58.0087 176.591 57.2061V52.9921H177.865ZM181.29 54.2381C181.514 53.7994 181.832 53.4587 182.242 53.2161C182.662 52.9734 183.171 52.8521 183.768 52.8521V54.1681H183.432C182.004 54.1681 181.29 54.9427 181.29 56.4921V60.6641H180.016V52.9921H181.29V54.2381ZM185.897 51.7461C185.654 51.7461 185.449 51.6621 185.281 51.4941C185.113 51.3261 185.029 51.1207 185.029 50.8781C185.029 50.6354 185.113 50.4301 185.281 50.2621C185.449 50.0941 185.654 50.0101 185.897 50.0101C186.13 50.0101 186.326 50.0941 186.485 50.2621C186.653 50.4301 186.737 50.6354 186.737 50.8781C186.737 51.1207 186.653 51.3261 186.485 51.4941C186.326 51.6621 186.13 51.7461 185.897 51.7461ZM186.513 52.9921V60.6641H185.239V52.9921H186.513Z" fill="#4E9525"/>
</svg>
