<svg width="380" height="404" viewBox="0 0 380 404" fill="none" xmlns="http://www.w3.org/2000/svg">
<path d="M190 404C294.934 404 380 398.732 380 392.233C380 385.735 294.934 380.467 190 380.467C85.0659 380.467 0 385.735 0 392.233C0 398.732 85.0659 404 190 404Z" fill="#E6E6E6"/>
<path d="M215.389 93.2098H213.345V34.1702C213.345 25.1077 209.93 16.4164 203.853 10.0082C197.775 3.60007 189.532 0 180.936 0H62.3014C53.706 0 45.4627 3.60007 39.3849 10.0082C33.3071 16.4164 29.8926 25.1077 29.8926 34.1702V358.064C29.8926 367.126 33.3071 375.818 39.3849 382.226C45.4627 388.634 53.706 392.234 62.3014 392.234H180.936C189.532 392.234 197.775 388.634 203.853 382.226C209.93 375.818 213.345 367.126 213.345 358.064V135.235H215.389V93.2098Z" fill="#3F3D56"/>
<path d="M206.447 34.409V357.825C206.447 364.593 203.897 371.084 199.358 375.87C194.819 380.655 188.663 383.344 182.244 383.344H63.0397C56.6208 383.344 50.4649 380.655 45.9261 375.87C41.3872 371.084 38.8372 364.594 38.8369 357.826V34.409C38.8371 27.641 41.3871 21.1503 45.9261 16.3646C50.4651 11.5789 56.6212 8.89029 63.0403 8.89014H77.5015C76.7908 10.7311 76.5202 12.7281 76.7133 14.7053C76.9064 16.6824 77.5574 18.5793 78.609 20.229C79.6607 21.8786 81.0807 23.2305 82.7441 24.1657C84.4076 25.1009 86.2636 25.5908 88.1487 25.5922H156.114C157.999 25.5909 159.855 25.1011 161.518 24.1659C163.182 23.2307 164.602 21.8789 165.654 20.2292C166.705 18.5795 167.356 16.6826 167.55 14.7054C167.743 12.7282 167.472 10.7312 166.761 8.89014H182.244C188.663 8.89029 194.819 11.5789 199.358 16.3646C203.897 21.1503 206.447 27.641 206.447 34.409Z" fill="white"/>
<path d="M93.9036 279.276H91.3965L92.2335 227.647H93.0705L93.9036 279.276Z" fill="#E6E6E6"/>
<path d="M95.9928 195.142L100.039 188.548C98.8394 185.053 97.4533 181.632 95.8879 178.302L93.2714 180.53L95.3433 177.155C93.3685 173.057 91.815 170.475 91.815 170.475C91.815 170.475 83.7006 183.957 80.9881 198.235L86.1809 206.696L80.4334 201.801C80.2287 203.464 80.1234 205.139 80.1182 206.816C80.1182 223.724 85.3556 237.43 91.8161 237.43C98.2767 237.43 103.514 223.722 103.514 206.816C103.514 201.574 102.389 196.091 100.836 191.017L95.9928 195.142Z" fill="#CCCCCC"/>
<path d="M159.167 279.276H156.66L157.497 227.647H158.334L159.167 279.276Z" fill="#E6E6E6"/>
<path d="M161.256 195.142L165.302 188.548C164.102 185.053 162.716 181.632 161.151 178.302L158.534 180.53L160.606 177.155C158.631 173.057 157.078 170.475 157.078 170.475C157.078 170.475 148.962 183.959 146.253 198.235L151.442 206.695L145.694 201.8C145.489 203.463 145.384 205.138 145.379 206.815C145.379 223.723 150.616 237.429 157.077 237.429C163.537 237.429 168.775 223.721 168.775 206.815C168.775 201.573 167.65 196.089 166.096 191.016L161.256 195.142Z" fill="#CCCCCC"/>
<path d="M91.9963 108.134C104.718 108.134 115.031 97.2607 115.031 83.8478C115.031 70.4349 104.718 59.5615 91.9963 59.5615C79.2747 59.5615 68.9619 70.4349 68.9619 83.8478C68.9619 97.2607 79.2747 108.134 91.9963 108.134Z" fill="#E6E6E6"/>
<path d="M123.901 271.759H118.732L120.456 165.304H122.178L123.901 271.759Z" fill="#E6E6E6"/>
<path d="M128.208 98.2812L136.552 84.6872C134.078 77.4806 131.22 70.4269 127.992 63.5597L122.596 68.154L126.868 61.1928C122.795 52.7432 119.594 47.4194 119.594 47.4194C119.594 47.4194 102.86 75.2216 97.2697 104.658L107.974 122.105L96.1208 112.011C95.6987 115.44 95.4816 118.894 95.4707 122.352C95.4707 157.214 106.27 185.476 119.591 185.476C132.912 185.476 143.711 157.214 143.711 122.352C143.711 111.544 141.392 100.237 138.193 89.7769L128.208 98.2812Z" fill="#CCCCCC"/>
<path d="M206.447 287.104V359.473C206.447 374.152 195.611 386.05 182.244 386.051H63.0399C49.6729 386.051 38.8365 374.152 38.8359 359.473V294.159C59.5033 267.518 89.3849 251.596 121.232 250.256C153.079 248.915 183.983 262.278 206.447 287.104Z" fill="#E6E6E6"/>
<path opacity="0.2" d="M122.772 358.492C142.251 358.492 158.042 341.843 158.042 321.305C158.042 300.767 142.251 284.118 122.772 284.118C103.293 284.118 87.502 300.767 87.502 321.305C87.502 341.843 103.293 358.492 122.772 358.492Z" fill="#4E9525"/>
<path d="M122.772 351.248C138.456 351.248 151.171 337.842 151.171 321.305C151.171 304.768 138.456 291.362 122.772 291.362C107.087 291.362 94.3721 304.768 94.3721 321.305C94.3721 337.842 107.087 351.248 122.772 351.248Z" fill="#4E9525"/>
<path d="M119.46 334.107L109.451 320.54L115.272 315.767L120.01 322.191L136.019 304.374L141.372 309.72L119.46 334.107Z" fill="white"/>
<path d="M273.692 274.732C283.862 274.732 292.107 266.04 292.107 255.317C292.107 244.595 283.862 235.902 273.692 235.902C263.523 235.902 255.278 244.595 255.278 255.317C255.278 266.04 263.523 274.732 273.692 274.732Z" fill="#2F2E41"/>
<path d="M281.154 364.309L282.573 371.365L309.061 368.953L306.968 358.54L281.154 364.309Z" fill="#FFB8B8"/>
<path d="M279.092 386.36L274.634 364.184L282.761 362.368L285.496 375.976C285.722 377.102 285.736 378.263 285.537 379.394C285.337 380.524 284.928 381.603 284.334 382.567C283.739 383.531 282.97 384.362 282.071 385.013C281.171 385.664 280.159 386.122 279.092 386.36Z" fill="#2F2E41"/>
<path d="M264.56 363.933L261.579 370.425L236.413 361.39L240.813 351.809L264.56 363.933Z" fill="#FFB8B8"/>
<path d="M257.693 374.169L263.443 361.649L270.919 365.466L261.55 385.869C259.567 384.856 258.047 383.055 257.324 380.861C256.6 378.667 256.733 376.26 257.693 374.169Z" fill="#2F2E41"/>
<path d="M214.975 351.111C215.837 351.28 216.723 351.248 217.572 351.017C218.42 350.786 219.21 350.362 219.886 349.774C220.562 349.186 221.108 348.449 221.485 347.615C221.862 346.781 222.06 345.869 222.067 344.945L263.568 304.603L253.262 296.187L215.687 338.513C214.214 338.603 212.823 339.26 211.779 340.36C210.734 341.459 210.109 342.925 210.021 344.478C209.934 346.032 210.39 347.565 211.303 348.787C212.216 350.01 213.523 350.837 214.976 351.111L214.975 351.111Z" fill="#FFB8B8"/>
<path d="M271.381 275.608C278.95 275.608 285.086 269.139 285.086 261.158C285.086 253.178 278.95 246.708 271.381 246.708C263.812 246.708 257.676 253.178 257.676 261.158C257.676 269.139 263.812 275.608 271.381 275.608Z" fill="#FFB8B8"/>
<path d="M283.68 346.098C274.066 346.098 262.488 343.964 255.345 335.227L255.185 335.031L255.352 334.838C255.408 334.775 260.661 328.443 255.414 317.152L248.199 319.492L241.018 309.497L244.996 296.913L261.277 283.087C263.609 281.117 266.449 279.929 269.429 279.68C274.822 279.13 280.075 277.553 284.933 275.024C287.156 273.885 289.604 273.321 292.075 273.377L292.396 273.386C293.147 273.409 293.887 273.592 294.569 273.924C295.251 274.257 295.863 274.732 296.366 275.321C296.869 275.91 297.253 276.601 297.495 277.351C297.738 278.101 297.833 278.896 297.775 279.686C296.671 294.765 294.722 331.19 300.449 343.732L300.597 344.057L300.267 344.145C294.823 345.436 289.261 346.091 283.681 346.097L283.68 346.098Z" fill="#4E9525"/>
<path d="M257.231 335.036C257.231 335.036 220.961 331.506 217.055 342.684C213.149 353.862 217.613 359.157 224.309 361.511C231.005 363.864 247.187 366.806 247.187 366.806L254.441 357.392L273.413 358.569C273.413 358.569 294.553 371.496 300.398 385.323C301.652 388.315 303.652 390.892 306.185 392.781C308.718 394.67 311.689 395.801 314.782 396.052C319.469 396.395 323.633 394.53 323.633 386.808C323.633 369.158 300.197 343.86 300.197 343.86L257.231 335.036Z" fill="#2F2E41"/>
<path d="M229.61 352.392C229.61 352.392 239.096 349.45 254.162 357.098L229.61 352.392Z" fill="#2F2E41"/>
<path d="M257.71 251.943C263.062 255.388 269.097 257.484 275.343 258.069L273.484 255.72C274.837 256.248 276.261 256.546 277.703 256.603C278.425 256.625 279.142 256.468 279.796 256.146C280.45 255.823 281.023 255.343 281.47 254.744C281.834 254.123 282.051 253.418 282.101 252.689C282.151 251.96 282.033 251.229 281.758 250.558C281.191 249.221 280.31 248.059 279.197 247.182C277.224 245.537 274.896 244.432 272.42 243.965C269.944 243.499 267.397 243.685 265.006 244.508C263.365 245.024 261.896 246.018 260.766 247.374C260.21 248.058 259.825 248.875 259.643 249.755C259.462 250.634 259.49 251.546 259.726 252.411" fill="#2F2E41"/>
<path d="M273.594 240.393C276.029 234.431 279.674 229.105 284.272 224.789C287.225 222.023 290.674 219.645 294.565 218.927C298.456 218.209 302.842 219.439 305.229 222.758C307.182 225.472 307.546 229.107 307.331 232.506C307.116 235.904 306.396 239.272 306.465 242.674C306.535 246.149 307.427 249.55 309.06 252.568C310.694 255.587 313.016 258.127 315.817 259.96C318.617 261.792 321.808 262.858 325.098 263.06C328.389 263.263 331.675 262.595 334.659 261.119C331.299 263.078 328.68 266.179 325.563 268.537C322.446 270.895 318.33 272.514 314.787 270.955C311.039 269.308 309.319 264.825 307.976 260.783L301.988 242.756C300.97 239.692 299.901 236.536 297.824 234.14C295.746 231.744 292.375 230.282 289.516 231.487C287.349 232.4 285.937 234.581 284.7 236.665C283.463 238.748 282.157 240.971 280.069 242.065C277.98 243.159 274.879 242.486 274.197 240.132" fill="#2F2E41"/>
<path d="M278.296 346.149C278.06 346.149 277.823 346.135 277.588 346.108C276.029 345.923 274.596 345.115 273.584 343.85C272.572 342.586 272.057 340.96 272.147 339.308C272.236 337.656 272.922 336.103 274.064 334.968C275.206 333.833 276.717 333.202 278.286 333.205C278.56 333.207 278.834 333.228 279.105 333.269L297.841 312.239L295.885 305.365L305.706 300.722L308.459 307.817C309.383 310.22 309.546 312.874 308.926 315.383C308.305 317.892 306.934 320.123 305.015 321.746L284.391 339.043C284.413 339.253 284.424 339.465 284.425 339.677C284.424 340.588 284.242 341.488 283.89 342.319C283.537 343.15 283.023 343.894 282.38 344.502C281.26 345.567 279.804 346.154 278.296 346.149Z" fill="#FFB8B8"/>
<path d="M292.943 276.203C293.593 275.898 294.294 275.735 295.005 275.724C295.716 275.712 296.422 275.852 297.08 276.136C297.738 276.419 298.335 276.84 298.835 277.373C299.335 277.905 299.728 278.539 299.99 279.236L309.683 305.031L294.617 315.621L292.943 276.203Z" fill="#4E9525"/>
</svg>
