<svg width="180" height="70" viewBox="0 0 337 67" fill="none" xmlns="http://www.w3.org/2000/svg">
<path d="M49.4225 16.2541C49.109 15.5691 48.769 14.8978 48.4032 14.2419C31.5144 17.8908 11.053 27.4893 2.03829 41.7106C4.25672 45.9151 7.46906 49.4518 11.3672 51.9816C19.2079 36.0785 39.4895 20.0523 49.4225 16.2541ZM46.8766 11.7918C42.0317 4.84888 34.2032 0.335938 25.3656 0.335938C13.9439 0.335938 4.20503 7.8705 0.420288 18.4534C14.0641 11.3517 35.3682 9.95957 46.8766 11.7918ZM27.5712 56.0444C41.2484 54.8684 52.0002 42.8743 52.0002 28.2414C52.004 24.5481 51.3061 20.8909 49.9473 17.483C40.6662 27.4219 31.3384 41.9106 27.5712 56.0444ZM5.73423 26.5651H6.57168V34.5688H5.73423V26.5651Z" fill="white"/>
<path d="M4.66201 20.3638C6.1524 21.8289 6.63785 24.9708 6.55065 26.5535C9.51282 24.0327 6.25023 19.1956 3.66292 18.5789C3.83838 19.8089 3.71981 20.947 3.54435 21.9637C3.16151 24.206 4.1606 26.392 5.77754 26.5708C5.82008 25.4355 6.1524 23.8299 4.66201 20.3638Z" fill="white"/>
<path d="M1.33301 27.31C2.21884 26.886 4.45948 27.0866 5.42667 27.3545C3.73316 24.6705 0.680062 26.3323 0 27.632C0.813522 27.7645 1.50688 28.0843 2.1125 28.4152C3.44763 29.1467 5.0348 28.9082 5.48463 27.8236C4.77638 27.5612 2.35443 27.2905 1.33301 27.31ZM9.83936 26.0916C9.6288 27.0843 8.12352 28.8392 7.33924 29.4837C10.4024 29.6887 10.9788 26.134 10.3987 24.7825C9.80639 25.3825 9.14441 25.7691 8.52762 26.0749C7.16378 26.7495 6.3896 28.2219 6.94312 29.2497C7.57373 28.8174 9.24065 26.9551 9.83936 26.0916ZM23.9558 46.945H24.7933V54.9486H23.9558V46.945Z" fill="white"/>
<path d="M22.8846 40.7434C24.375 42.2085 24.8605 45.3505 24.7732 46.9321C27.736 44.4124 24.4728 39.5741 21.8855 38.9585C22.061 40.1885 21.9419 41.3278 21.7669 42.3428C21.3841 44.5845 22.3832 46.7722 24.0001 46.9504C24.0421 45.8151 24.3745 44.209 22.8846 40.7434Z" fill="white"/>
<path d="M19.555 47.6897C20.4408 47.2646 22.6814 47.4663 23.6481 47.7337C21.954 45.0497 18.9015 46.7109 18.2209 48.0106C19.0344 48.1432 19.7283 48.4629 20.3334 48.7938C21.6685 49.5253 23.2557 49.2869 23.7055 48.2039C22.9989 47.9398 20.5769 47.6702 19.555 47.6897ZM28.0629 46.4708C27.8523 47.4641 26.3476 49.2189 25.5633 49.8634C28.6265 50.0673 29.2034 46.5126 28.6228 45.1622C28.0305 45.7611 27.3685 46.1482 26.7517 46.4541C25.3894 47.1282 24.6137 48.6011 25.1683 49.6284C25.7962 49.1961 27.4631 47.3332 28.0629 46.4708ZM16.5486 20.3552H17.1575V26.1684H16.5486V20.3552Z" fill="white"/>
<path d="M15.7703 15.8524C16.8524 16.9159 17.2049 19.1977 17.1411 20.3464C19.2935 18.5164 16.9226 15.0029 15.0451 14.5566C15.1727 15.4496 15.086 16.2769 14.9579 17.0145C14.6808 18.6417 15.4056 20.2305 16.5796 20.3609C16.611 19.5353 16.8524 18.3688 15.7703 15.8524Z" fill="white"/>
<path d="M13.3533 20.8962C13.9956 20.5887 15.6237 20.7341 16.3266 20.9285C15.0952 18.9793 12.8795 20.1859 12.3856 21.1296C12.9763 21.226 13.4804 21.4578 13.9196 21.6984C14.8899 22.2304 16.0416 22.0566 16.3681 21.27C15.8539 21.0773 14.0956 20.8823 13.3533 20.8962ZM19.5318 20.0121C19.3781 20.7324 18.286 22.007 17.7165 22.475C19.9407 22.6232 20.3597 20.0416 19.9391 19.0601C19.5079 19.4946 19.0283 19.7765 18.58 19.9987C17.5894 20.4879 17.0274 21.5586 17.4294 22.304C17.8861 21.9914 19.0974 20.6383 19.5318 20.0121ZM31.0865 36.8728H31.6958V42.6877H31.0865V36.8728Z" fill="white"/>
<path d="M30.3079 32.3706C31.39 33.4341 31.742 35.7165 31.6797 36.8646C33.8316 35.0346 31.4612 31.5205 29.5832 31.0737C29.7113 31.9673 29.6247 32.7951 29.4955 33.5327C29.219 35.1605 29.9437 36.7488 31.1177 36.8797C31.1491 36.053 31.3905 34.887 30.3079 32.3706Z" fill="white"/>
<path d="M27.8895 37.416C28.5323 37.1068 30.1599 37.2522 30.8634 37.4478C29.6324 35.498 27.4168 36.7052 26.9228 37.6483C27.512 37.7453 28.0176 37.9776 28.4574 38.2171C29.4288 38.748 30.5794 38.5759 30.9064 37.7876C30.3917 37.5965 28.6318 37.401 27.8895 37.416ZM34.068 36.5297C33.9149 37.2494 32.8227 38.5252 32.2527 38.9937C34.4769 39.1407 34.8953 36.5609 34.4753 35.5782C34.0446 36.0133 33.5645 36.2957 33.1168 36.5174C32.1267 37.0066 31.5631 38.0767 31.9661 38.8215C32.4223 38.5085 33.6325 37.1559 34.068 36.5297ZM26.666 16.3933H27.101V20.294H26.666V16.3933Z" fill="white"/>
<path d="M26.0614 13.3724C26.8845 14.0865 27.1514 15.6163 27.1046 16.3879C28.7413 15.16 26.9377 12.8025 25.5084 12.5022C25.6063 13.1027 25.5398 13.6565 25.4425 14.1512C25.2325 15.2436 25.7839 16.3088 26.6771 16.3957C26.6989 15.8441 26.8824 15.0609 26.0614 13.3724Z" fill="white"/>
<path d="M24.2226 16.7572C24.7118 16.5505 25.948 16.648 26.4834 16.7783C25.5476 15.4709 23.8626 16.2798 23.4872 16.9132C23.9365 16.9778 24.3194 17.1338 24.6538 17.2953C25.3918 17.6519 26.267 17.5349 26.5148 17.0067C26.1245 16.8786 24.7878 16.7488 24.2226 16.7572ZM28.9214 16.1639C28.8049 16.648 27.9754 17.5026 27.54 17.8168C29.2308 17.9154 29.5498 16.1834 29.2297 15.5249C28.9017 15.8168 28.5364 16.0068 28.1961 16.1544C27.4432 16.4831 27.0162 17.2006 27.322 17.702C27.6686 17.4925 28.5906 16.5845 28.9214 16.1639ZM37.7233 27.9774H38.1572V31.8781H37.7233V27.9774Z" fill="white"/>
<path d="M37.1177 24.9575C37.9408 25.6711 38.2093 27.2014 38.161 27.9718C39.7981 26.7451 37.9945 24.3865 36.5664 24.0862C36.6637 24.6867 36.5977 25.241 36.501 25.7363C36.2904 26.8282 36.8413 27.8933 37.7345 27.9808C37.7569 27.4281 37.9408 26.646 37.1177 24.9575Z" fill="white"/>
<path d="M35.2789 28.3412C35.7676 28.135 37.0049 28.2325 37.5403 28.3623C36.6045 27.0548 34.919 27.8643 34.543 28.4971C34.9923 28.5618 35.3757 28.7177 35.7101 28.8793C36.4466 29.2364 37.3223 29.1194 37.5711 28.5913C37.1803 28.4626 35.8441 28.3328 35.2789 28.3412ZM39.9782 27.7484C39.8602 28.2325 39.0312 29.0865 38.5952 29.4002C40.2877 29.4993 40.6061 27.7674 40.2861 27.1094C39.9575 27.4014 39.5932 27.5896 39.2524 27.7384C38.5006 28.0671 38.072 28.7846 38.3772 29.2854C38.7255 29.0754 39.6464 28.1679 39.9782 27.7484ZM34.936 14.4163H35.2289V17.0496H34.936V14.4163Z" fill="white"/>
<path d="M34.5264 12.3779C35.0805 12.8598 35.2618 13.8921 35.2294 14.413C36.3343 13.5835 35.1188 11.9924 34.1526 11.7908C34.2186 12.1958 34.1734 12.5696 34.1085 12.9044C33.9655 13.6414 34.3393 14.3612 34.9417 14.4197C34.9571 14.0458 35.0805 13.5172 34.5264 12.3779Z" fill="white"/>
<path d="M33.2842 14.6618C33.6134 14.5225 34.4482 14.5883 34.8108 14.6768C34.1791 13.7939 33.0418 14.3409 32.7881 14.7677C33.0912 14.8117 33.3518 14.917 33.5767 15.0256C34.0744 15.2662 34.6651 15.1871 34.831 14.8306C34.5683 14.7437 33.6655 14.6568 33.2842 14.6618ZM36.457 14.2613C36.3778 14.5883 35.8157 15.1649 35.5249 15.3771C36.6659 15.444 36.8797 14.2752 36.6644 13.8301C36.4432 14.0273 36.1975 14.1549 35.9667 14.2557C35.459 14.4769 35.1713 14.961 35.3776 15.2997C35.6094 15.1576 36.2337 14.5459 36.457 14.2613Z" fill="white"/>
<path d="M93.6671 23.8816C94.2968 23.8816 94.8148 24.0731 95.221 24.4562C95.6476 24.8606 95.8609 25.382 95.8609 26.0205C95.8609 26.6377 95.6476 27.1485 95.221 27.5528C94.8148 27.9572 94.2968 28.1594 93.6671 28.1594H81.4181V41.312C81.4181 41.9505 81.2049 42.4932 80.7783 42.9401C80.3517 43.3871 79.8337 43.6105 79.2243 43.6105C78.5946 43.6105 78.0664 43.3871 77.6399 42.9401C77.2133 42.4932 77 41.9505 77 41.312V11.0482C77 10.3672 77.2133 9.80318 77.6399 9.35625C78.0664 8.9306 78.5946 8.71777 79.2243 8.71777H98.4813C99.1516 8.71777 99.6798 8.91996 100.066 9.32433C100.472 9.7287 100.675 10.2608 100.675 10.9205C100.675 11.5377 100.472 12.0379 100.066 12.4209C99.6798 12.804 99.1516 12.9956 98.4813 12.9956H81.4181V23.8816H93.6671ZM116.489 18.9973C118.683 18.9973 120.674 19.54 122.461 20.6254C124.228 21.7108 125.63 23.2006 126.666 25.0947C127.702 26.9889 128.22 29.0958 128.22 31.4156V41.3759C128.22 42.0356 128.017 42.5783 127.611 43.004C127.204 43.4509 126.686 43.6744 126.057 43.6744C125.427 43.6744 124.909 43.4509 124.503 43.004C124.076 42.5783 123.863 42.0356 123.863 41.3759V39.7478C122.867 41.0247 121.659 42.0143 120.237 42.7167C118.815 43.4403 117.281 43.8021 115.636 43.8021C113.584 43.8021 111.736 43.27 110.09 42.2059C108.425 41.1205 107.114 39.6307 106.16 37.7365C105.205 35.8424 104.728 33.7354 104.728 31.4156C104.728 29.0958 105.235 26.9889 106.251 25.0947C107.287 23.2006 108.709 21.7108 110.517 20.6254C112.305 19.54 114.295 18.9973 116.489 18.9973ZM116.489 39.7797C117.911 39.7797 119.201 39.4179 120.359 38.6943C121.517 37.9494 122.421 36.9491 123.071 35.6934C123.721 34.4165 124.046 32.9905 124.046 31.4156C124.046 29.8407 123.721 28.4148 123.071 27.1378C122.421 25.8609 121.517 24.85 120.359 24.1051C119.201 23.3815 117.911 23.0197 116.489 23.0197C115.067 23.0197 113.777 23.3815 112.619 24.1051C111.482 24.85 110.578 25.8609 109.908 27.1378C109.237 28.4148 108.902 29.8407 108.902 31.4156C108.902 32.9905 109.237 34.4165 109.908 35.6934C110.578 36.9491 111.482 37.9494 112.619 38.6943C113.777 39.4179 115.067 39.7797 116.489 39.7797ZM146.136 18.9015C147.639 18.9015 148.818 19.1462 149.671 19.6357C150.524 20.1039 150.951 20.6999 150.951 21.4235C150.951 21.615 150.94 21.764 150.92 21.8704C150.656 22.8068 150.087 23.275 149.214 23.275C149.072 23.275 148.858 23.2538 148.574 23.2112C147.436 22.9984 146.512 22.892 145.801 22.892C143.749 22.892 142.104 23.3815 140.865 24.3605C139.606 25.3395 138.976 26.6696 138.976 28.3509V41.3759C138.976 42.0995 138.803 42.6528 138.458 43.0359C138.092 43.419 137.554 43.6105 136.843 43.6105C136.152 43.6105 135.624 43.4296 135.259 43.0678C134.893 42.6847 134.71 42.1208 134.71 41.3759V21.4235C134.71 20.6999 134.893 20.1465 135.259 19.7634C135.624 19.3803 136.152 19.1888 136.843 19.1888C138.265 19.1888 138.976 19.9337 138.976 21.4235V22.2535C139.829 21.2106 140.885 20.3913 142.145 19.7953C143.384 19.1994 144.714 18.9015 146.136 18.9015ZM179.958 18.9653C182.436 18.9653 184.437 19.806 185.961 21.4873C187.484 23.1899 188.246 25.5629 188.246 28.6063V41.3759C188.246 42.0356 188.043 42.5783 187.636 43.004C187.25 43.4509 186.732 43.6744 186.082 43.6744C185.453 43.6744 184.935 43.4509 184.528 43.004C184.102 42.5783 183.889 42.0356 183.889 41.3759V28.6063C183.889 26.7973 183.462 25.4139 182.609 24.4562C181.735 23.5198 180.567 23.0516 179.105 23.0516C177.642 23.0516 176.434 23.5943 175.479 24.6797C174.524 25.7438 174.047 27.1165 174.047 28.7979V41.3759C174.047 42.0356 173.844 42.5783 173.437 43.004C173.051 43.4509 172.523 43.6744 171.853 43.6744C171.244 43.6744 170.726 43.4509 170.299 43.004C169.893 42.5783 169.69 42.0356 169.69 41.3759V28.6063C169.69 26.7973 169.253 25.4139 168.379 24.4562C167.526 23.5198 166.368 23.0516 164.906 23.0516C163.403 23.0516 162.174 23.5943 161.219 24.6797C160.264 25.7438 159.787 27.1165 159.787 28.7979V41.3759C159.787 42.0356 159.594 42.5783 159.208 43.004C158.802 43.4509 158.273 43.6744 157.623 43.6744C156.994 43.6744 156.476 43.4509 156.069 43.004C155.643 42.5783 155.43 42.0356 155.43 41.3759V21.4873C155.43 20.8063 155.643 20.2636 156.069 19.8592C156.476 19.4335 156.994 19.2207 157.623 19.2207C158.253 19.2207 158.761 19.4229 159.147 19.8273C159.553 20.2316 159.767 20.7637 159.787 21.4235C160.538 20.636 161.422 20.0295 162.438 19.6038C163.453 19.1782 164.56 18.9653 165.759 18.9653C167.221 18.9653 168.522 19.2633 169.659 19.8592C170.817 20.4764 171.762 21.349 172.493 22.4769C173.346 21.3703 174.412 20.5083 175.692 19.8911C176.972 19.2739 178.394 18.9653 179.958 18.9653ZM213.414 19.4761C213.78 19.6677 214.064 19.9124 214.267 20.2104C214.47 20.5296 214.572 20.8808 214.572 21.2638C214.572 21.5405 214.501 21.8278 214.358 22.1258L205.309 42.1101C204.882 43.0891 204.232 43.5786 203.359 43.5786C202.871 43.5786 202.465 43.4616 202.14 43.2275C201.835 43.0146 201.551 42.6422 201.287 42.1101L192.268 22.1258C192.146 21.8917 192.085 21.6256 192.085 21.3277C192.085 20.519 192.481 19.9018 193.273 19.4761C193.537 19.3271 193.842 19.2526 194.187 19.2526C194.512 19.2526 194.837 19.3484 195.162 19.54C195.467 19.7528 195.711 20.0295 195.894 20.37L203.298 37.13L210.641 20.37C210.804 20.0295 211.058 19.7528 211.403 19.54C211.728 19.3484 212.073 19.2526 212.439 19.2526C212.805 19.2526 213.13 19.3271 213.414 19.4761ZM239.77 31.0325C239.77 31.5859 239.588 32.0541 239.222 32.4372C238.856 32.799 238.389 32.9799 237.82 32.9799H221.61C221.915 35.0656 222.819 36.7469 224.322 38.0239C225.805 39.3221 227.633 39.9712 229.807 39.9712C230.66 39.9712 231.544 39.801 232.458 39.4604C233.392 39.1412 234.154 38.7368 234.743 38.2473C235.149 37.9281 235.616 37.7685 236.145 37.7685C236.693 37.7685 237.12 37.9175 237.424 38.2154C237.932 38.6623 238.186 39.1731 238.186 39.7478C238.186 40.2798 237.963 40.7267 237.516 41.0886C236.541 41.876 235.342 42.5251 233.92 43.0359C232.478 43.5467 231.107 43.8021 229.807 43.8021C227.471 43.8021 225.378 43.27 223.53 42.2059C221.681 41.163 220.239 39.6945 219.203 37.8004C218.167 35.9275 217.649 33.7993 217.649 31.4156C217.649 29.032 218.137 26.8931 219.112 24.9989C220.087 23.1048 221.448 21.6363 223.195 20.5934C224.942 19.5293 226.932 18.9973 229.167 18.9973C231.34 18.9973 233.23 19.508 234.834 20.5296C236.419 21.5299 237.638 22.9452 238.491 24.7755C239.344 26.5845 239.77 28.6702 239.77 31.0325ZM229.167 22.8281C227.075 22.8281 225.389 23.424 224.109 24.6158C222.809 25.8077 221.986 27.4039 221.641 29.4044H235.84C235.596 27.4039 234.885 25.8077 233.707 24.6158C232.549 23.424 231.036 22.8281 229.167 22.8281ZM253.512 18.9973C255.361 18.9973 257.016 19.3058 258.479 19.923C259.942 20.5615 261.099 21.4341 261.953 22.5408C262.318 23.009 262.501 23.4772 262.501 23.9454C262.501 24.4562 262.267 24.9244 261.8 25.3501C261.475 25.5842 261.069 25.7013 260.581 25.7013C259.85 25.7013 259.19 25.4139 258.601 24.8393C257.89 24.1583 257.128 23.6794 256.316 23.4027C255.523 23.1261 254.558 22.9877 253.421 22.9877C252.121 22.9877 251.054 23.2112 250.222 23.6581C249.368 24.1263 248.942 24.7755 248.942 25.6055C248.942 26.2014 249.084 26.7015 249.368 27.1059C249.653 27.5103 250.191 27.8827 250.983 28.2232C251.796 28.5638 252.954 28.9043 254.457 29.2448C257.545 29.8833 259.738 30.7878 261.038 31.9583C262.338 33.1289 262.989 34.6293 262.989 36.4596C262.989 37.843 262.633 39.088 261.922 40.1947C261.211 41.3227 260.165 42.2059 258.784 42.8444C257.402 43.4828 255.747 43.8021 253.817 43.8021C251.887 43.8021 250.069 43.4935 248.363 42.8763C246.657 42.2378 245.316 41.4184 244.341 40.4182C243.975 40.0138 243.792 39.5456 243.792 39.0135C243.792 38.3112 244.077 37.7365 244.646 37.2896C245.174 36.864 245.671 36.6511 246.139 36.6511C246.707 36.6511 247.246 36.9172 247.754 37.4492C248.302 38.0877 249.115 38.6304 250.191 39.0774C251.268 39.5456 252.415 39.7797 253.634 39.7797C255.259 39.7797 256.519 39.4924 257.413 38.9177C258.306 38.3644 258.753 37.6089 258.753 36.6511C258.753 35.736 258.316 34.9698 257.443 34.3526C256.549 33.7354 255.056 33.2246 252.964 32.8203C247.5 31.7136 244.767 29.3512 244.767 25.7332C244.767 24.286 245.184 23.0516 246.017 22.03C246.829 21.0297 247.906 20.2742 249.247 19.7634C250.587 19.2526 252.009 18.9973 253.512 18.9973ZM278.437 39.1412C278.945 39.1412 279.371 39.354 279.717 39.7797C280.082 40.2053 280.265 40.7374 280.265 41.3759C280.265 42.0356 280.031 42.5783 279.564 43.004C279.097 43.4084 278.488 43.6105 277.736 43.6105H276.974C275.573 43.6105 274.303 43.2381 273.165 42.4932C272.008 41.727 271.104 40.6842 270.454 39.3647C269.804 38.0664 269.479 36.5979 269.479 34.9592V23.9135H267.498C266.909 23.9135 266.432 23.7326 266.066 23.3708C265.68 23.009 265.487 22.5621 265.487 22.03C265.487 21.4341 265.68 20.9552 266.066 20.5934C266.432 20.2529 266.909 20.0827 267.498 20.0827H269.479V13.634C269.479 12.9743 269.672 12.4422 270.058 12.0379C270.464 11.6122 270.982 11.3994 271.611 11.3994C272.221 11.3994 272.729 11.6122 273.135 12.0379C273.541 12.4422 273.744 12.9743 273.744 13.634V20.0827H277.37C277.959 20.0827 278.437 20.2529 278.802 20.5934C279.168 20.9552 279.351 21.4341 279.351 22.03C279.351 22.5621 279.168 23.009 278.802 23.3708C278.437 23.7326 277.959 23.9135 277.37 23.9135H273.744V34.9592C273.744 36.151 274.049 37.1513 274.659 37.96C275.288 38.7475 276.06 39.1412 276.974 39.1412H278.437ZM297.206 18.9653C299.156 18.9653 300.913 19.4123 302.478 20.3061C304.042 21.2 305.271 22.4982 306.164 24.2008C307.038 25.9247 307.475 27.9891 307.475 30.3941V41.3759C307.475 42.0356 307.271 42.5783 306.865 43.004C306.439 43.4509 305.921 43.6744 305.311 43.6744C304.682 43.6744 304.164 43.4509 303.757 43.004C303.331 42.5783 303.117 42.0356 303.117 41.3759V30.3941C303.117 27.9891 302.498 26.1588 301.259 24.9032C300.02 23.6688 298.384 23.0516 296.353 23.0516C295.155 23.0516 294.068 23.307 293.093 23.8178C292.097 24.3285 291.326 25.0202 290.777 25.8928C290.229 26.7441 289.954 27.7125 289.954 28.7979V41.3759C289.954 42.0356 289.751 42.5783 289.345 43.004C288.939 43.4509 288.411 43.6744 287.761 43.6744C287.131 43.6744 286.613 43.4509 286.207 43.004C285.8 42.5783 285.597 42.0356 285.597 41.3759V21.4554C285.597 20.7743 285.8 20.221 286.207 19.7953C286.613 19.391 287.131 19.1888 287.761 19.1888C288.411 19.1888 288.939 19.391 289.345 19.7953C289.751 20.221 289.954 20.7743 289.954 21.4554V21.9342C290.848 20.9978 291.925 20.2636 293.184 19.7315C294.444 19.2207 295.784 18.9653 297.206 18.9653ZM325.269 18.9973C327.504 18.9973 329.515 19.5293 331.302 20.5934C333.069 21.6363 334.461 23.1048 335.477 24.9989C336.492 26.8718 337 29.0107 337 31.4156V41.0886C337 43.4296 336.502 45.5685 335.507 47.5052C334.512 49.442 333.11 50.9743 331.302 52.1023C329.494 53.209 327.453 53.7623 325.178 53.7623C323.126 53.7623 321.217 53.3367 319.449 52.4854C317.702 51.6341 316.23 50.421 315.031 48.846C314.706 48.4417 314.544 48.0267 314.544 47.601C314.544 46.9838 314.848 46.4518 315.458 46.0048C315.844 45.7281 316.24 45.5898 316.646 45.5898C317.357 45.5898 317.936 45.8984 318.383 46.5156C319.155 47.5584 320.13 48.3565 321.308 48.9099C322.466 49.4632 323.786 49.7399 325.269 49.7399C326.65 49.7399 327.91 49.3888 329.047 48.6864C330.185 47.9841 331.099 46.9625 331.79 45.6217C332.48 44.2597 332.826 42.6422 332.826 40.7693V38.5666C331.932 40.2053 330.764 41.4929 329.322 42.4294C327.859 43.3445 326.224 43.8021 324.416 43.8021C322.303 43.8021 320.414 43.27 318.749 42.2059C317.083 41.163 315.793 39.6945 314.879 37.8004C313.944 35.9275 313.477 33.7993 313.477 31.4156C313.477 29.0107 313.975 26.8718 314.97 24.9989C315.966 23.1048 317.367 21.6363 319.175 20.5934C320.963 19.5293 322.994 18.9973 325.269 18.9973ZM325.269 39.7797C326.711 39.7797 328.011 39.4179 329.169 38.6943C330.327 37.9919 331.221 37.0023 331.851 35.7253C332.501 34.4697 332.826 33.0331 332.826 31.4156C332.826 29.8194 332.501 28.3722 331.851 27.074C331.221 25.797 330.327 24.8074 329.169 24.1051C328.011 23.3815 326.711 23.0197 325.269 23.0197C323.807 23.0197 322.506 23.3815 321.369 24.1051C320.211 24.8074 319.307 25.797 318.657 27.074C318.007 28.3722 317.682 29.8194 317.682 31.4156C317.682 33.0331 318.007 34.4697 318.657 35.7253C319.307 37.0023 320.211 37.9919 321.369 38.6943C322.506 39.4179 323.807 39.7797 325.269 39.7797Z" fill="white"/>
<path d="M84.602 54.098C84.602 54.91 84.322 55.5867 83.762 56.128C83.2113 56.66 82.3667 56.926 81.228 56.926H79.352V61H78.078V51.242H81.228C82.3293 51.242 83.1647 51.508 83.734 52.04C84.3127 52.572 84.602 53.258 84.602 54.098ZM81.228 55.876C81.9373 55.876 82.46 55.722 82.796 55.414C83.132 55.106 83.3 54.6673 83.3 54.098C83.3 52.894 82.6093 52.292 81.228 52.292H79.352V55.876H81.228ZM89.5314 61.126C88.8128 61.126 88.1594 60.9627 87.5714 60.636C86.9928 60.3093 86.5354 59.8473 86.1994 59.25C85.8728 58.6433 85.7094 57.9433 85.7094 57.15C85.7094 56.366 85.8774 55.6753 86.2134 55.078C86.5588 54.4713 87.0254 54.0093 87.6134 53.692C88.2014 53.3653 88.8594 53.202 89.5874 53.202C90.3154 53.202 90.9734 53.3653 91.5614 53.692C92.1494 54.0093 92.6114 54.4667 92.9474 55.064C93.2928 55.6613 93.4654 56.3567 93.4654 57.15C93.4654 57.9433 93.2881 58.6433 92.9334 59.25C92.5881 59.8473 92.1168 60.3093 91.5194 60.636C90.9221 60.9627 90.2594 61.126 89.5314 61.126ZM89.5314 60.006C89.9888 60.006 90.4181 59.8987 90.8194 59.684C91.2208 59.4693 91.5428 59.1473 91.7854 58.718C92.0374 58.2887 92.1634 57.766 92.1634 57.15C92.1634 56.534 92.0421 56.0113 91.7994 55.582C91.5568 55.1527 91.2394 54.8353 90.8474 54.63C90.4554 54.4153 90.0308 54.308 89.5734 54.308C89.1068 54.308 88.6774 54.4153 88.2854 54.63C87.9028 54.8353 87.5948 55.1527 87.3614 55.582C87.1281 56.0113 87.0114 56.534 87.0114 57.15C87.0114 57.7753 87.1234 58.3027 87.3474 58.732C87.5808 59.1613 87.8888 59.4833 88.2714 59.698C88.6541 59.9033 89.0741 60.006 89.5314 60.006ZM105.361 53.328L102.967 61H101.651L99.8025 54.91L97.9545 61H96.6385L94.2305 53.328H95.5325L97.2965 59.768L99.2005 53.328H100.503L102.365 59.782L104.101 53.328H105.361ZM113.625 56.87C113.625 57.1127 113.611 57.3693 113.583 57.64H107.451C107.498 58.396 107.754 58.9887 108.221 59.418C108.697 59.838 109.271 60.048 109.943 60.048C110.494 60.048 110.951 59.922 111.315 59.67C111.688 59.4087 111.95 59.0633 112.099 58.634H113.471C113.266 59.3713 112.855 59.9733 112.239 60.44C111.623 60.8973 110.858 61.126 109.943 61.126C109.215 61.126 108.562 60.9627 107.983 60.636C107.414 60.3093 106.966 59.8473 106.639 59.25C106.312 58.6433 106.149 57.9433 106.149 57.15C106.149 56.3567 106.308 55.6613 106.625 55.064C106.942 54.4667 107.386 54.0093 107.955 53.692C108.534 53.3653 109.196 53.202 109.943 53.202C110.671 53.202 111.315 53.3607 111.875 53.678C112.435 53.9953 112.864 54.434 113.163 54.994C113.471 55.5447 113.625 56.17 113.625 56.87ZM112.309 56.604C112.309 56.1187 112.202 55.7033 111.987 55.358C111.772 55.0033 111.478 54.7373 111.105 54.56C110.741 54.3733 110.335 54.28 109.887 54.28C109.243 54.28 108.692 54.4853 108.235 54.896C107.787 55.3067 107.53 55.876 107.465 56.604H112.309ZM116.581 54.574C116.805 54.1353 117.122 53.7947 117.533 53.552C117.953 53.3093 118.461 53.188 119.059 53.188V54.504H118.723C117.295 54.504 116.581 55.2787 116.581 56.828V61H115.307V53.328H116.581V54.574ZM127.529 56.87C127.529 57.1127 127.515 57.3693 127.487 57.64H121.355C121.402 58.396 121.659 58.9887 122.125 59.418C122.601 59.838 123.175 60.048 123.847 60.048C124.398 60.048 124.855 59.922 125.219 59.67C125.593 59.4087 125.854 59.0633 126.003 58.634H127.375C127.17 59.3713 126.759 59.9733 126.143 60.44C125.527 60.8973 124.762 61.126 123.847 61.126C123.119 61.126 122.466 60.9627 121.887 60.636C121.318 60.3093 120.87 59.8473 120.543 59.25C120.217 58.6433 120.053 57.9433 120.053 57.15C120.053 56.3567 120.212 55.6613 120.529 55.064C120.847 54.4667 121.29 54.0093 121.859 53.692C122.438 53.3653 123.101 53.202 123.847 53.202C124.575 53.202 125.219 53.3607 125.779 53.678C126.339 53.9953 126.769 54.434 127.067 54.994C127.375 55.5447 127.529 56.17 127.529 56.87ZM126.213 56.604C126.213 56.1187 126.106 55.7033 125.891 55.358C125.677 55.0033 125.383 54.7373 125.009 54.56C124.645 54.3733 124.239 54.28 123.791 54.28C123.147 54.28 122.597 54.4853 122.139 54.896C121.691 55.3067 121.435 55.876 121.369 56.604H126.213ZM128.735 57.136C128.735 56.352 128.893 55.666 129.211 55.078C129.528 54.4807 129.962 54.0187 130.513 53.692C131.073 53.3653 131.698 53.202 132.389 53.202C132.986 53.202 133.541 53.342 134.055 53.622C134.568 53.8927 134.96 54.252 135.231 54.7V50.64H136.519V61H135.231V59.558C134.979 60.0153 134.605 60.3933 134.111 60.692C133.616 60.9813 133.037 61.126 132.375 61.126C131.693 61.126 131.073 60.958 130.513 60.622C129.962 60.286 129.528 59.8147 129.211 59.208C128.893 58.6013 128.735 57.9107 128.735 57.136ZM135.231 57.15C135.231 56.5713 135.114 56.0673 134.881 55.638C134.647 55.2087 134.33 54.882 133.929 54.658C133.537 54.4247 133.103 54.308 132.627 54.308C132.151 54.308 131.717 54.42 131.325 54.644C130.933 54.868 130.62 55.1947 130.387 55.624C130.153 56.0533 130.037 56.5573 130.037 57.136C130.037 57.724 130.153 58.2373 130.387 58.676C130.62 59.1053 130.933 59.4367 131.325 59.67C131.717 59.894 132.151 60.006 132.627 60.006C133.103 60.006 133.537 59.894 133.929 59.67C134.33 59.4367 134.647 59.1053 134.881 58.676C135.114 58.2373 135.231 57.7287 135.231 57.15ZM143.678 54.756C143.94 54.2987 144.322 53.9253 144.826 53.636C145.33 53.3467 145.904 53.202 146.548 53.202C147.239 53.202 147.86 53.3653 148.41 53.692C148.961 54.0187 149.395 54.4807 149.712 55.078C150.03 55.666 150.188 56.352 150.188 57.136C150.188 57.9107 150.03 58.6013 149.712 59.208C149.395 59.8147 148.956 60.286 148.396 60.622C147.846 60.958 147.23 61.126 146.548 61.126C145.886 61.126 145.302 60.9813 144.798 60.692C144.304 60.4027 143.93 60.034 143.678 59.586V61H142.404V50.64H143.678V54.756ZM148.886 57.136C148.886 56.5573 148.77 56.0533 148.536 55.624C148.303 55.1947 147.986 54.868 147.584 54.644C147.192 54.42 146.758 54.308 146.282 54.308C145.816 54.308 145.382 54.4247 144.98 54.658C144.588 54.882 144.271 55.2133 144.028 55.652C143.795 56.0813 143.678 56.5807 143.678 57.15C143.678 57.7287 143.795 58.2373 144.028 58.676C144.271 59.1053 144.588 59.4367 144.98 59.67C145.382 59.894 145.816 60.006 146.282 60.006C146.758 60.006 147.192 59.894 147.584 59.67C147.986 59.4367 148.303 59.1053 148.536 58.676C148.77 58.2373 148.886 57.724 148.886 57.136ZM158.473 53.328L153.853 64.612H152.537L154.049 60.916L150.955 53.328H152.369L154.777 59.544L157.157 53.328H158.473ZM164.564 59.894H169.324V61H163.052V59.992L167.784 52.348H163.108V51.242H169.296V52.25L164.564 59.894ZM177.864 53.328V61H176.59V59.866C176.348 60.258 176.007 60.566 175.568 60.79C175.139 61.0047 174.663 61.112 174.14 61.112C173.543 61.112 173.006 60.9907 172.53 60.748C172.054 60.496 171.676 60.1227 171.396 59.628C171.126 59.1333 170.99 58.5313 170.99 57.822V53.328H172.25V57.654C172.25 58.41 172.442 58.9933 172.824 59.404C173.207 59.8053 173.73 60.006 174.392 60.006C175.074 60.006 175.61 59.796 176.002 59.376C176.394 58.956 176.59 58.3447 176.59 57.542V53.328H177.864ZM181.29 54.574C181.514 54.1353 181.831 53.7947 182.242 53.552C182.662 53.3093 183.17 53.188 183.768 53.188V54.504H183.432C182.004 54.504 181.29 55.2787 181.29 56.828V61H180.016V53.328H181.29V54.574ZM185.896 52.082C185.653 52.082 185.448 51.998 185.28 51.83C185.112 51.662 185.028 51.4567 185.028 51.214C185.028 50.9713 185.112 50.766 185.28 50.598C185.448 50.43 185.653 50.346 185.896 50.346C186.129 50.346 186.325 50.43 186.484 50.598C186.652 50.766 186.736 50.9713 186.736 51.214C186.736 51.4567 186.652 51.662 186.484 51.83C186.325 51.998 186.129 52.082 185.896 52.082ZM186.512 53.328V61H185.238V53.328H186.512Z" fill="white"/>
</svg>
