<svg width="40" height="40" viewBox="0 0 40 40" fill="none" xmlns="http://www.w3.org/2000/svg">
<path d="M0 20C0 8.9543 8.9543 0 20 0C31.0457 0 40 8.9543 40 20C40 31.0457 31.0457 40 20 40C8.9543 40 0 31.0457 0 20Z" fill="#4E9525"/>
<mask id="mask0" mask-type="alpha" maskUnits="userSpaceOnUse" x="0" y="0" width="40" height="40">
<path fill-rule="evenodd" clip-rule="evenodd" d="M0 20C0 8.9543 8.9543 0 20 0C31.0457 0 40 8.9543 40 20C40 31.0457 31.0457 40 20 40C8.9543 40 0 31.0457 0 20Z" fill="white"/>
</mask>
<g mask="url(#mask0)">
<path fill-rule="evenodd" clip-rule="evenodd" d="M20.001 9.33337C17.1041 9.33337 16.7405 9.34604 15.6027 9.39782C14.4671 9.44982 13.692 9.6296 13.0138 9.89338C12.3122 10.1658 11.7171 10.5303 11.1242 11.1234C10.5309 11.7163 10.1664 12.3114 9.8931 13.0127C9.62865 13.6912 9.44865 14.4665 9.39754 15.6017C9.34665 16.7395 9.33331 17.1032 9.33331 20.0002C9.33331 22.8971 9.3462 23.2595 9.39776 24.3973C9.44998 25.5329 9.62976 26.308 9.89332 26.9862C10.166 27.6878 10.5304 28.2829 11.1236 28.8758C11.7162 29.4691 12.3113 29.8345 13.0125 30.1069C13.6911 30.3707 14.4665 30.5505 15.6018 30.6025C16.7396 30.6543 17.1029 30.6669 19.9996 30.6669C22.8968 30.6669 23.2592 30.6543 24.397 30.6025C25.5326 30.5505 26.3086 30.3707 26.9873 30.1069C27.6886 29.8345 28.2828 29.4691 28.8755 28.8758C29.4689 28.2829 29.8333 27.6878 30.1066 26.9864C30.3689 26.308 30.5489 25.5327 30.6022 24.3975C30.6533 23.2597 30.6666 22.8971 30.6666 20.0002C30.6666 17.1032 30.6533 16.7397 30.6022 15.6019C30.5489 14.4663 30.3689 13.6912 30.1066 13.013C29.8333 12.3114 29.4689 11.7163 28.8755 11.1234C28.2822 10.5301 27.6888 10.1656 26.9866 9.89338C26.3066 9.6296 25.531 9.44982 24.3955 9.39782C23.2577 9.34604 22.8955 9.33337 19.9976 9.33337H20.001ZM19.0441 11.2556C19.2299 11.2553 19.4298 11.2554 19.6455 11.2555L20.001 11.2556C22.849 11.2556 23.1866 11.2658 24.3112 11.317C25.3513 11.3645 25.9157 11.5383 26.2917 11.6843C26.7895 11.8776 27.1444 12.1087 27.5175 12.4821C27.8908 12.8554 28.122 13.211 28.3157 13.7088C28.4617 14.0843 28.6357 14.6488 28.6831 15.6888C28.7342 16.8132 28.7453 17.151 28.7453 19.9977C28.7453 22.8444 28.7342 23.1822 28.6831 24.3066C28.6355 25.3467 28.4617 25.9111 28.3157 26.2867C28.1224 26.7844 27.8908 27.1389 27.5175 27.512C27.1442 27.8853 26.7897 28.1165 26.2917 28.3098C25.9162 28.4565 25.3513 28.6298 24.3112 28.6774C23.1868 28.7285 22.849 28.7396 20.001 28.7396C17.1527 28.7396 16.8152 28.7285 15.6907 28.6774C14.6507 28.6294 14.0863 28.4556 13.71 28.3096C13.2122 28.1162 12.8567 27.8851 12.4833 27.5118C12.11 27.1385 11.8789 26.7838 11.6851 26.2858C11.5391 25.9102 11.3651 25.3458 11.3178 24.3058C11.2667 23.1813 11.2564 22.8435 11.2564 19.995C11.2564 17.1466 11.2667 16.8106 11.3178 15.6861C11.3653 14.6461 11.5391 14.0816 11.6851 13.7056C11.8785 13.2079 12.11 12.8523 12.4833 12.479C12.8567 12.1056 13.2122 11.8745 13.71 11.6807C14.086 11.5341 14.6507 11.3607 15.6907 11.313C16.6747 11.2685 17.0561 11.2552 19.0441 11.253V11.2556ZM24.4148 14.3063C24.4148 13.5994 24.9881 13.0267 25.6948 13.0267V13.0263C26.4015 13.0263 26.9748 13.5996 26.9748 14.3063C26.9748 15.013 26.4015 15.5863 25.6948 15.5863C24.9881 15.5863 24.4148 15.013 24.4148 14.3063ZM20.0008 14.5223C16.9757 14.5224 14.5231 16.9751 14.5231 20.0002C14.5231 23.0253 16.9758 25.4769 20.001 25.4769C23.0261 25.4769 25.4779 23.0253 25.4779 20.0002C25.4779 16.975 23.0259 14.5223 20.0008 14.5223ZM23.5566 20.0001C23.5566 18.0363 21.9645 16.4446 20.001 16.4446C18.0372 16.4446 16.4454 18.0363 16.4454 20.0001C16.4454 21.9637 18.0372 23.5557 20.001 23.5557C21.9645 23.5557 23.5566 21.9637 23.5566 20.0001Z" fill="white"/>
</g>
</svg>
