<svg width="180" height="39" viewBox="0 0 260 39" fill="none" xmlns="http://www.w3.org/2000/svg">
<path d="M66.9653 15.5743C67.4648 15.5743 67.8758 15.7193 68.198 16.0094C68.5365 16.3156 68.7057 16.7104 68.7057 17.1938C68.7057 17.6611 68.5365 18.0479 68.198 18.354C67.8758 18.6602 67.4648 18.8133 66.9653 18.8133H57.2483V28.772C57.2483 29.2555 57.0791 29.6664 56.7407 30.0048C56.4023 30.3432 55.9914 30.5124 55.5079 30.5124C55.0084 30.5124 54.5894 30.3432 54.251 30.0048C53.9126 29.6664 53.7434 29.2555 53.7434 28.772V5.8573C53.7434 5.34164 53.9126 4.91461 54.251 4.57621C54.5894 4.25392 55.0084 4.09277 55.5079 4.09277H70.7844C71.3162 4.09277 71.7352 4.24586 72.0413 4.55203C72.3636 4.85821 72.5248 5.26107 72.5248 5.76062C72.5248 6.22793 72.3636 6.60662 72.0413 6.89668C71.7352 7.18674 71.3162 7.33177 70.7844 7.33177H57.2483V15.5743H66.9653ZM85.0699 11.876C86.8102 11.876 88.3894 12.287 89.8075 13.1088C91.2095 13.9306 92.3213 15.0586 93.1432 16.4928C93.965 17.927 94.3759 19.5223 94.3759 21.2788V28.8204C94.3759 29.3199 94.2148 29.7308 93.8925 30.0531C93.5702 30.3915 93.1593 30.5607 92.6598 30.5607C92.1602 30.5607 91.7493 30.3915 91.427 30.0531C91.0886 29.7308 90.9194 29.3199 90.9194 28.8204V27.5876C90.1298 28.5545 89.171 29.3038 88.043 29.8356C86.915 30.3835 85.6983 30.6574 84.393 30.6574C82.7655 30.6574 81.2991 30.2545 79.9938 29.4488C78.6724 28.627 77.633 27.499 76.8757 26.0648C76.1183 24.6306 75.7396 23.0353 75.7396 21.2788C75.7396 19.5223 76.1425 17.927 76.9482 16.4928C77.77 15.0586 78.898 13.9306 80.3322 13.1088C81.7503 12.287 83.3295 11.876 85.0699 11.876ZM85.0699 27.6118C86.1979 27.6118 87.2211 27.3378 88.1397 26.7899C89.0582 26.2259 89.7753 25.4686 90.2909 24.5178C90.8066 23.5509 91.0644 22.4713 91.0644 21.2788C91.0644 20.0863 90.8066 19.0067 90.2909 18.0398C89.7753 17.0729 89.0582 16.3075 88.1397 15.7435C87.2211 15.1956 86.1979 14.9217 85.0699 14.9217C83.9418 14.9217 82.9186 15.1956 82.0001 15.7435C81.0977 16.3075 80.3806 17.0729 79.8488 18.0398C79.317 19.0067 79.0511 20.0863 79.0511 21.2788C79.0511 22.4713 79.317 23.5509 79.8488 24.5178C80.3806 25.4686 81.0977 26.2259 82.0001 26.7899C82.9186 27.3378 83.9418 27.6118 85.0699 27.6118ZM108.589 11.8035C109.781 11.8035 110.716 11.9888 111.393 12.3595C112.07 12.714 112.408 13.1652 112.408 13.7131C112.408 13.8581 112.4 13.9709 112.384 14.0515C112.174 14.7605 111.723 15.115 111.03 15.115C110.917 15.115 110.748 15.0989 110.523 15.0667C109.62 14.9056 108.887 14.825 108.323 14.825C106.695 14.825 105.39 15.1956 104.407 15.9369C103.408 16.6781 102.909 17.6853 102.909 18.9583V28.8204C102.909 29.3683 102.772 29.7872 102.498 30.0773C102.208 30.3673 101.781 30.5124 101.217 30.5124C100.669 30.5124 100.25 30.3754 99.9596 30.1015C99.6695 29.8114 99.5245 29.3844 99.5245 28.8204V13.7131C99.5245 13.1652 99.6695 12.7462 99.9596 12.4562C100.25 12.1661 100.669 12.0211 101.217 12.0211C102.345 12.0211 102.909 12.5851 102.909 13.7131V14.3415C103.585 13.5519 104.423 12.9315 105.422 12.4803C106.405 12.0291 107.461 11.8035 108.589 11.8035ZM135.419 11.8519C137.385 11.8519 138.973 12.4884 140.181 13.7614C141.39 15.0506 141.994 16.8473 141.994 19.1517V28.8204C141.994 29.3199 141.833 29.7308 141.511 30.0531C141.204 30.3915 140.794 30.5607 140.278 30.5607C139.778 30.5607 139.367 30.3915 139.045 30.0531C138.707 29.7308 138.538 29.3199 138.538 28.8204V19.1517C138.538 17.782 138.199 16.7345 137.522 16.0094C136.829 15.3004 135.903 14.9458 134.743 14.9458C133.582 14.9458 132.624 15.3568 131.866 16.1786C131.109 16.9843 130.73 18.0237 130.73 19.2967V28.8204C130.73 29.3199 130.569 29.7308 130.247 30.0531C129.94 30.3915 129.521 30.5607 128.99 30.5607C128.506 30.5607 128.095 30.3915 127.757 30.0531C127.435 29.7308 127.274 29.3199 127.274 28.8204V19.1517C127.274 17.782 126.927 16.7345 126.234 16.0094C125.557 15.3004 124.639 14.9458 123.479 14.9458C122.286 14.9458 121.311 15.3568 120.554 16.1786C119.796 16.9843 119.418 18.0237 119.418 19.2967V28.8204C119.418 29.3199 119.265 29.7308 118.958 30.0531C118.636 30.3915 118.217 30.5607 117.702 30.5607C117.202 30.5607 116.791 30.3915 116.469 30.0531C116.13 29.7308 115.961 29.3199 115.961 28.8204V13.7614C115.961 13.2458 116.13 12.8348 116.469 12.5287C116.791 12.2064 117.202 12.0452 117.702 12.0452C118.201 12.0452 118.604 12.1983 118.91 12.5045C119.232 12.8107 119.402 13.2135 119.418 13.7131C120.014 13.1169 120.715 12.6576 121.521 12.3353C122.326 12.013 123.205 11.8519 124.155 11.8519C125.316 11.8519 126.347 12.0775 127.249 12.5287C128.168 12.996 128.917 13.6567 129.497 14.5108C130.174 13.6728 131.02 13.0202 132.035 12.5528C133.051 12.0855 134.179 11.8519 135.419 11.8519ZM161.96 12.2386C162.25 12.3836 162.476 12.569 162.637 12.7946C162.798 13.0363 162.878 13.3022 162.878 13.5922C162.878 13.8017 162.822 14.0193 162.709 14.2449L155.53 29.3763C155.192 30.1176 154.676 30.4882 153.983 30.4882C153.596 30.4882 153.274 30.3996 153.016 30.2223C152.775 30.0612 152.549 29.7792 152.34 29.3763L145.185 14.2449C145.088 14.0676 145.04 13.8662 145.04 13.6406C145.04 13.0282 145.354 12.5609 145.982 12.2386C146.192 12.1258 146.434 12.0694 146.708 12.0694C146.965 12.0694 147.223 12.1419 147.481 12.287C147.723 12.4481 147.916 12.6576 148.061 12.9154L153.935 25.6055L159.76 12.9154C159.889 12.6576 160.091 12.4481 160.365 12.287C160.622 12.1419 160.896 12.0694 161.186 12.0694C161.476 12.0694 161.734 12.1258 161.96 12.2386ZM182.868 20.9888C182.868 21.4077 182.723 21.7622 182.433 22.0523C182.143 22.3262 181.773 22.4632 181.321 22.4632H168.462C168.704 24.0424 169.421 25.3155 170.613 26.2823C171.79 27.2653 173.24 27.7568 174.964 27.7568C175.641 27.7568 176.342 27.6279 177.067 27.3701C177.808 27.1283 178.413 26.8222 178.88 26.4515C179.202 26.2098 179.573 26.089 179.992 26.089C180.427 26.089 180.765 26.2018 181.007 26.4274C181.41 26.7658 181.611 27.1525 181.611 27.5876C181.611 27.9905 181.434 28.3289 181.08 28.6028C180.306 29.1991 179.355 29.6905 178.227 30.0773C177.083 30.464 175.996 30.6574 174.964 30.6574C173.111 30.6574 171.451 30.2545 169.985 29.4488C168.518 28.6592 167.374 27.5473 166.552 26.1131C165.731 24.6951 165.32 23.0836 165.32 21.2788C165.32 19.474 165.706 17.8545 166.48 16.4203C167.253 14.9861 168.333 13.8742 169.719 13.0846C171.105 12.2789 172.684 11.876 174.457 11.876C176.181 11.876 177.679 12.2628 178.953 13.0363C180.209 13.7937 181.176 14.8653 181.853 16.2511C182.53 17.6208 182.868 19.2 182.868 20.9888ZM174.457 14.7766C172.797 14.7766 171.459 15.2278 170.444 16.1303C169.413 17.0327 168.76 18.2412 168.486 19.756H179.75C179.557 18.2412 178.993 17.0327 178.058 16.1303C177.14 15.2278 175.939 14.7766 174.457 14.7766ZM193.77 11.876C195.236 11.876 196.549 12.1097 197.71 12.577C198.87 13.0605 199.788 13.7211 200.465 14.5591C200.755 14.9136 200.9 15.2681 200.9 15.6226C200.9 16.0094 200.715 16.3639 200.344 16.6862C200.087 16.8635 199.764 16.9521 199.378 16.9521C198.797 16.9521 198.274 16.7345 197.806 16.2995C197.242 15.7838 196.638 15.4212 195.994 15.2117C195.365 15.0022 194.6 14.8975 193.697 14.8975C192.666 14.8975 191.82 15.0667 191.159 15.4051C190.482 15.7596 190.144 16.2511 190.144 16.8796C190.144 17.3308 190.257 17.7095 190.482 18.0156C190.708 18.3218 191.135 18.6038 191.763 18.8616C192.408 19.1195 193.327 19.3773 194.519 19.6351C196.968 20.1186 198.709 20.8034 199.74 21.6897C200.771 22.576 201.287 23.7121 201.287 25.0979C201.287 26.1454 201.005 27.0881 200.441 27.926C199.877 28.7801 199.047 29.4488 197.951 29.9323C196.856 30.4157 195.542 30.6574 194.011 30.6574C192.481 30.6574 191.038 30.4237 189.685 29.9564C188.331 29.473 187.268 28.8526 186.494 28.0952C186.204 27.789 186.059 27.4345 186.059 27.0317C186.059 26.4999 186.285 26.0648 186.736 25.7264C187.155 25.4041 187.55 25.243 187.92 25.243C188.371 25.243 188.798 25.4444 189.201 25.8472C189.636 26.3307 190.281 26.7416 191.135 27.08C191.989 27.4345 192.9 27.6118 193.866 27.6118C195.156 27.6118 196.155 27.3942 196.864 26.9591C197.573 26.5402 197.927 25.9681 197.927 25.243C197.927 24.55 197.581 23.9699 196.888 23.5026C196.179 23.0353 194.994 22.6485 193.335 22.3424C189 21.5044 186.832 19.7157 186.832 16.9763C186.832 15.8805 187.163 14.9458 187.824 14.1723C188.468 13.415 189.322 12.8429 190.386 12.4562C191.449 12.0694 192.577 11.876 193.77 11.876ZM213.542 27.1283C213.945 27.1283 214.283 27.2895 214.557 27.6118C214.847 27.9341 214.992 28.3369 214.992 28.8204C214.992 29.3199 214.807 29.7308 214.436 30.0531C214.066 30.3593 213.582 30.5124 212.986 30.5124H212.382C211.27 30.5124 210.263 30.2304 209.36 29.6664C208.442 29.0863 207.725 28.2966 207.209 27.2976C206.693 26.3146 206.436 25.2027 206.436 23.9619V15.5985H204.865C204.397 15.5985 204.018 15.4615 203.728 15.1876C203.422 14.9136 203.269 14.5752 203.269 14.1723C203.269 13.7211 203.422 13.3586 203.728 13.0846C204.018 12.8268 204.397 12.6979 204.865 12.6979H206.436V7.81521C206.436 7.31566 206.589 6.9128 206.895 6.60662C207.217 6.28434 207.628 6.12319 208.128 6.12319C208.611 6.12319 209.014 6.28434 209.336 6.60662C209.659 6.9128 209.82 7.31566 209.82 7.81521V12.6979H212.696C213.163 12.6979 213.542 12.8268 213.832 13.0846C214.122 13.3586 214.267 13.7211 214.267 14.1723C214.267 14.5752 214.122 14.9136 213.832 15.1876C213.542 15.4615 213.163 15.5985 212.696 15.5985H209.82V23.9619C209.82 24.8643 210.061 25.6217 210.545 26.234C211.044 26.8302 211.657 27.1283 212.382 27.1283H213.542ZM228.432 11.8519C229.979 11.8519 231.373 12.1903 232.614 12.8671C233.854 13.5439 234.829 14.5269 235.538 15.816C236.231 17.1213 236.578 18.6844 236.578 20.5053V28.8204C236.578 29.3199 236.417 29.7308 236.094 30.0531C235.756 30.3915 235.345 30.5607 234.862 30.5607C234.362 30.5607 233.951 30.3915 233.629 30.0531C233.29 29.7308 233.121 29.3199 233.121 28.8204V20.5053C233.121 18.6844 232.63 17.2985 231.647 16.3478C230.664 15.4132 229.367 14.9458 227.755 14.9458C226.804 14.9458 225.942 15.1392 225.169 15.526C224.379 15.9127 223.767 16.4364 223.332 17.0971C222.897 17.7417 222.679 18.4749 222.679 19.2967V28.8204C222.679 29.3199 222.518 29.7308 222.196 30.0531C221.873 30.3915 221.454 30.5607 220.939 30.5607C220.439 30.5607 220.028 30.3915 219.706 30.0531C219.384 29.7308 219.222 29.3199 219.222 28.8204V13.7373C219.222 13.2216 219.384 12.8026 219.706 12.4803C220.028 12.1742 220.439 12.0211 220.939 12.0211C221.454 12.0211 221.873 12.1742 222.196 12.4803C222.518 12.8026 222.679 13.2216 222.679 13.7373V14.0998C223.388 13.3908 224.242 12.8348 225.241 12.432C226.24 12.0452 227.304 11.8519 228.432 11.8519ZM250.694 11.876C252.467 11.876 254.062 12.2789 255.48 13.0846C256.882 13.8742 257.986 14.9861 258.791 16.4203C259.597 17.8384 260 19.4579 260 21.2788V28.6028C260 30.3754 259.605 31.9949 258.816 33.4613C258.026 34.9277 256.914 36.088 255.48 36.942C254.046 37.78 252.426 38.199 250.621 38.199C248.994 38.199 247.479 37.8767 246.077 37.2321C244.691 36.5875 243.523 35.669 242.572 34.4765C242.314 34.1704 242.186 33.8561 242.186 33.5338C242.186 33.0665 242.427 32.6637 242.911 32.3253C243.217 32.1158 243.531 32.011 243.853 32.011C244.417 32.011 244.877 32.2447 245.231 32.712C245.844 33.5016 246.617 34.1059 247.552 34.5249C248.47 34.9438 249.518 35.1533 250.694 35.1533C251.79 35.1533 252.789 34.8874 253.691 34.3557C254.594 33.8239 255.319 33.0504 255.867 32.0352C256.415 31.0039 256.689 29.7792 256.689 28.3611V26.6933C255.979 27.9341 255.053 28.909 253.909 29.618C252.749 30.3109 251.451 30.6574 250.017 30.6574C248.341 30.6574 246.843 30.2545 245.521 29.4488C244.2 28.6592 243.177 27.5473 242.451 26.1131C241.71 24.6951 241.34 23.0836 241.34 21.2788C241.34 19.4579 241.734 17.8384 242.524 16.4203C243.314 14.9861 244.425 13.8742 245.86 13.0846C247.278 12.2789 248.889 11.876 250.694 11.876ZM250.694 27.6118C251.838 27.6118 252.869 27.3378 253.788 26.7899C254.706 26.2582 255.415 25.5088 255.915 24.542C256.431 23.5912 256.689 22.5035 256.689 21.2788C256.689 20.0702 256.431 18.9744 255.915 17.9915C255.415 17.0246 254.706 16.2753 253.788 15.7435C252.869 15.1956 251.838 14.9217 250.694 14.9217C249.534 14.9217 248.502 15.1956 247.6 15.7435C246.681 16.2753 245.964 17.0246 245.449 17.9915C244.933 18.9744 244.675 20.0702 244.675 21.2788C244.675 22.5035 244.933 23.5912 245.449 24.542C245.964 25.5088 246.681 26.2582 247.6 26.7899C248.502 27.3378 249.534 27.6118 250.694 27.6118Z" fill="#4E9525"/>
<path d="M34.8714 10.7201C34.6503 10.2587 34.4104 9.80665 34.1522 9.36495C22.2358 11.8223 7.79856 18.2864 1.43796 27.8637C3.00324 30.6952 5.26982 33.077 8.02029 34.7807C13.5525 24.0708 27.8629 13.2779 34.8714 10.7201ZM33.0751 7.71496C29.6566 3.03924 24.133 0 17.8973 0C9.83835 0 2.96677 5.07415 0.296326 12.2012C9.92314 7.41857 24.955 6.48103 33.0751 7.71496ZM19.4535 37.5168C29.104 36.7248 36.6903 28.6475 36.6903 18.7929C36.6929 16.3056 36.2005 13.8427 35.2417 11.5477C28.6932 18.241 22.1116 27.9984 19.4535 37.5168ZM4.04576 17.664H4.63664V23.0541H4.04576V17.664Z" fill="#4E9525"/>
<path d="M3.28949 13.4877C4.34108 14.4744 4.68361 16.5903 4.62208 17.6562C6.71214 15.9585 4.41011 12.701 2.58455 12.2856C2.70835 13.114 2.62469 13.8805 2.50088 14.5652C2.23076 16.0752 2.9357 17.5474 4.07659 17.6678C4.1066 16.9032 4.34108 15.822 3.28949 13.4877Z" fill="#4E9525"/>
<path d="M0.940546 18.1658C1.56558 17.8803 3.14653 18.0153 3.82897 18.1958C2.63406 16.3882 0.47984 17.5073 0 18.3826C0.574007 18.4719 1.06323 18.6872 1.49054 18.9101C2.43259 19.4027 3.55247 19.2421 3.86986 18.5117C3.37013 18.335 1.66124 18.1526 0.940546 18.1658ZM6.94248 17.3453C6.79392 18.0138 5.73182 19.1956 5.17844 19.6297C7.33979 19.7677 7.74647 17.3738 7.33716 16.4636C6.91922 16.8677 6.45214 17.128 6.01695 17.334C5.05464 17.7883 4.50839 18.7799 4.89894 19.4721C5.34389 19.181 6.52005 17.9268 6.94248 17.3453ZM16.9028 31.3889H17.4937V36.779H16.9028V31.3889Z" fill="#4E9525"/>
<path d="M16.1468 27.2125C17.1984 28.1992 17.541 30.3152 17.4794 31.3803C19.5699 29.6834 17.2675 26.4251 15.4419 26.0105C15.5657 26.8389 15.4817 27.6061 15.3582 28.2896C15.0881 29.7993 15.7931 31.2726 16.9339 31.3927C16.9636 30.6281 17.1981 29.5465 16.1468 27.2125Z" fill="#4E9525"/>
<path d="M13.798 31.8903C14.423 31.604 16.0039 31.7399 16.686 31.9199C15.4907 30.1124 13.3369 31.2311 12.8567 32.1064C13.4307 32.1957 13.9203 32.411 14.3472 32.6339C15.2893 33.1265 16.4091 32.9659 16.7265 32.2366C16.2279 32.0588 14.519 31.8772 13.798 31.8903ZM19.801 31.0694C19.6525 31.7384 18.5907 32.9201 18.0374 33.3542C20.1987 33.4915 20.6058 31.0976 20.1961 30.1882C19.7781 30.5915 19.3111 30.8522 18.8759 31.0582C17.9147 31.5121 17.3673 32.5041 17.7586 33.1959C18.2017 32.9048 19.3778 31.6502 19.801 31.0694ZM11.6768 13.4819H12.1063V17.3968H11.6768V13.4819Z" fill="#4E9525"/>
<path d="M11.1275 10.4495C11.8909 11.1657 12.1397 12.7024 12.0946 13.476C13.6133 12.2436 11.9405 9.87741 10.6157 9.5769C10.7058 10.1783 10.6446 10.7354 10.5542 11.2321C10.3587 12.328 10.8701 13.398 11.6985 13.4858C11.7206 12.9298 11.8909 12.1442 11.1275 10.4495Z" fill="#4E9525"/>
<path d="M9.42158 13.8462C9.87478 13.6391 11.0235 13.737 11.5195 13.8679C10.6506 12.5552 9.0873 13.3678 8.73877 14.0034C9.15558 14.0683 9.51124 14.2243 9.82113 14.3864C10.5058 14.7447 11.3184 14.6276 11.5488 14.0979C11.186 13.9681 9.94531 13.8368 9.42158 13.8462ZM13.781 13.2508C13.6726 13.7359 12.902 14.5943 12.5002 14.9094C14.0695 15.0092 14.3652 13.2707 14.0684 12.6096C13.7641 12.9023 13.4257 13.0921 13.1095 13.2418C12.4105 13.5712 12.014 14.2922 12.2976 14.7942C12.6199 14.5838 13.4745 13.6725 13.781 13.2508ZM21.9338 24.6056H22.3637V28.5216H21.9338V24.6056Z" fill="#4E9525"/>
<path d="M21.3846 21.5736C22.1481 22.2898 22.3964 23.8268 22.3525 24.6001C23.8708 23.3676 22.1983 21.0011 20.8732 20.7002C20.9636 21.302 20.9025 21.8595 20.8113 22.3562C20.6162 23.4524 21.1276 24.522 21.956 24.6102C21.9781 24.0534 22.1484 23.2682 21.3846 21.5736Z" fill="#4E9525"/>
<path d="M19.6787 24.9714C20.1323 24.7632 21.2807 24.8611 21.777 24.9928C20.9085 23.6797 19.3452 24.4927 18.9966 25.1279C19.4123 25.1932 19.7691 25.3496 20.0794 25.5109C20.7648 25.8685 21.5767 25.7525 21.8074 25.2217C21.4442 25.093 20.2024 24.9613 19.6787 24.9714ZM24.0381 24.3745C23.9301 24.8593 23.1595 25.7184 22.7573 26.0339C24.3266 26.133 24.6219 24.3956 24.3255 23.7338C24.0216 24.0268 23.6829 24.217 23.367 24.3663C22.6684 24.6957 22.2707 25.4164 22.5551 25.918C22.877 25.7071 23.7309 24.7962 24.0381 24.3745ZM18.8154 10.8137H19.1223V13.4406H18.8154V10.8137Z" fill="#4E9525"/>
<path d="M18.3889 8.77937C18.9697 9.26034 19.158 10.2905 19.125 10.8102C20.2797 9.98329 19.0072 8.39557 17.9987 8.19336C18.0677 8.59779 18.0209 8.97071 17.9522 9.30386C17.804 10.0396 18.1931 10.7569 18.8233 10.8154C18.8387 10.444 18.9682 9.91651 18.3889 8.77937Z" fill="#4E9525"/>
<path d="M17.0908 11.0589C17.436 10.9197 18.3082 10.9853 18.686 11.0731C18.0257 10.1926 16.8368 10.7374 16.572 11.1639C16.889 11.2074 17.1591 11.3125 17.3951 11.4213C17.9158 11.6614 18.5333 11.5826 18.7082 11.227C18.4328 11.1407 17.4896 11.0532 17.0908 11.0589ZM20.4062 10.6593C20.324 10.9853 19.7388 11.5609 19.4315 11.7724C20.6245 11.8389 20.8496 10.6725 20.6238 10.229C20.3923 10.4256 20.1346 10.5535 19.8944 10.6529C19.3632 10.8743 19.0619 11.3575 19.2777 11.6952C19.5223 11.5541 20.1728 10.9426 20.4062 10.6593ZM26.6167 18.6151H26.9228V21.2421H26.6167V18.6151Z" fill="#4E9525"/>
<path d="M26.1894 16.5814C26.7701 17.062 26.9596 18.0926 26.9254 18.6114C28.0806 17.7853 26.808 16.1968 25.8003 15.9946C25.869 16.3991 25.8225 16.7724 25.7542 17.1059C25.6056 17.8412 25.9943 18.5585 26.6246 18.6174C26.6403 18.2453 26.7701 17.7185 26.1894 16.5814Z" fill="#4E9525"/>
<path d="M24.892 18.8601C25.2368 18.7213 26.1098 18.787 26.4876 18.8744C25.8273 17.9939 24.638 18.539 24.3727 18.9652C24.6898 19.0087 24.9603 19.1137 25.1962 19.2225C25.7158 19.463 26.3337 19.3842 26.5093 19.0286C26.2336 18.9419 25.2908 18.8545 24.892 18.8601ZM28.2077 18.4609C28.1244 18.787 27.5395 19.3621 27.2319 19.5733C28.4261 19.6401 28.6508 18.4737 28.4249 18.0306C28.1931 18.2272 27.9361 18.354 27.6956 18.4542C27.1651 18.6755 26.8627 19.1588 27.0781 19.496C27.3238 19.3546 27.9736 18.7434 28.2077 18.4609ZM24.65 9.48242H24.8567V11.2558H24.65V9.48242Z" fill="#4E9525"/>
<path d="M24.3615 8.10954C24.7524 8.43406 24.8804 9.12924 24.8575 9.48003C25.6371 8.9214 24.7794 7.84992 24.0978 7.71411C24.1443 7.98686 24.1124 8.2386 24.0666 8.46407C23.9657 8.96042 24.2294 9.44514 24.6545 9.48453C24.6654 9.23279 24.7524 8.87676 24.3615 8.10954Z" fill="#4E9525"/>
<path d="M23.4848 9.64777C23.717 9.55398 24.306 9.59825 24.5619 9.6579C24.1162 9.06326 23.3137 9.43168 23.1348 9.71905C23.3486 9.74869 23.5324 9.8196 23.6911 9.89276C24.0423 10.0548 24.4591 10.0016 24.5762 9.76145C24.3908 9.70292 23.7538 9.6444 23.4848 9.64777ZM25.7234 9.37803C25.6675 9.59825 25.271 9.98655 25.0658 10.1295C25.8709 10.1745 26.0217 9.38741 25.8697 9.08765C25.7137 9.22046 25.5403 9.30637 25.3775 9.37427C25.0192 9.52322 24.8163 9.84924 24.9618 10.0773C25.1254 9.98167 25.5659 9.56974 25.7234 9.37803Z" fill="#4E9525"/>
</svg>
